<svg xmlns="http://www.w3.org/2000/svg" width="1760" height="1320" viewBox="0 0 1760 1320" role="img" aria-labelledby="title desc">
  <title id="title">Meelsnet Server · Homelab Architecture</title>
  <desc id="desc">Actuele Proxmox/LXC-indeling met compacte stacksamenvatting per container.</desc>
  <defs>
    <linearGradient id="bg" x1="0" y1="0" x2="1" y2="1">
      <stop offset="0%" stop-color="#0b1220"/>
      <stop offset="100%" stop-color="#111827"/>
    </linearGradient>
    <linearGradient id="panel" x1="0" y1="0" x2="0" y2="1">
      <stop offset="0%" stop-color="#182236"/>
      <stop offset="100%" stop-color="#121a2b"/>
    </linearGradient>
    <filter id="shadow" x="-20%" y="-20%" width="140%" height="140%">
      <feDropShadow dx="0" dy="12" stdDeviation="16" flood-color="#020617" flood-opacity="0.34"/>
    </filter>
    <style>
      .title1 { font: 700 40px Inter,Segoe UI,Arial,sans-serif; fill: #f8fafc; }
      .subtitle1 { font: 400 18px Inter,Segoe UI,Arial,sans-serif; fill: #94a3b8; }
      .title2 { font: 700 18px Inter,Segoe UI,Arial,sans-serif; fill: #f8fafc; }
      .meta { font: 400 14px Inter,Segoe UI,Arial,sans-serif; fill: #a8b3c7; }
      .ip { font: 700 14px Inter,Segoe UI,Arial,sans-serif; fill: #dbe4ee; }
      .specs { font: 600 12px Inter,Segoe UI,Arial,sans-serif; fill: #cbd5e1; }
      .hero { font: 600 13px Inter,Segoe UI,Arial,sans-serif; fill: #f8fafc; }
      .svc { font: 600 13px Inter,Segoe UI,Arial,sans-serif; fill: #dbe4ee; }
      .bullet { font: 700 13px Inter,Segoe UI,Arial,sans-serif; fill: #cbd5e1; }
      .section { font: 700 12px Inter,Segoe UI,Arial,sans-serif; fill: #94a3b8; letter-spacing: 0.08em; text-transform: uppercase; }
      .legendTitle { font: 700 16px Inter,Segoe UI,Arial,sans-serif; fill: #f8fafc; }
      .legendText { font: 600 13px Inter,Segoe UI,Arial,sans-serif; fill: #e2e8f0; }
      .footer { font: 500 12px Inter,Segoe UI,Arial,sans-serif; fill: #94a3b8; }
      .hostTitle { font: 700 18px Inter,Segoe UI,Arial,sans-serif; fill: #f8fafc; }
      .hostMeta { font: 600 13px Inter,Segoe UI,Arial,sans-serif; fill: #dbe4ee; }
    </style>
  </defs>
  <rect width="1760" height="1320" fill="url(#bg)"/>
  <text x="56" y="64" class="title1">Meelsnet Server · Homelab Architecture</text>
  <text x="56" y="96" class="subtitle1">Actuele Proxmox/LXC-indeling met compacte stacksamenvatting per container.</text>
  <rect x="36" y="126" width="1688" height="1158" rx="32" fill="rgba(15,23,42,0.58)" stroke="#334155" stroke-width="2.2" filter="url(#shadow)"/>

<rect x="56" y="144" width="250" height="42" rx="14" fill="#111827" stroke="#94a3b8" stroke-width="1.8"/>
<text x="72" y="170" class="meta">Proxmox host · srv-mn</text>
<rect x="324" y="144" width="280" height="42" rx="14" fill="#111827" stroke="#60a5fa" stroke-width="1.8"/>
<text x="340" y="170" class="meta">vmbr0 · LAN · 192.168.2.0/24</text>
<rect x="622" y="144" width="300" height="42" rx="14" fill="#111827" stroke="#c084fc" stroke-width="1.8"/>
<text x="638" y="170" class="meta">vmbr1 · Service net · 10.10.0.0/24</text>
<rect x="1180" y="144" width="512" height="124" rx="20" fill="#0f172a" stroke="#334155" stroke-width="1.8"/>
<text x="1198" y="172" class="legendTitle">Legend</text>
<rect x="1198" y="194" width="14" height="14" rx="4" fill="#0f3d2e" stroke="#34d399"/>
<text x="1222" y="206" class="legendText">Core infrastructure</text>
<rect x="1440" y="194" width="14" height="14" rx="4" fill="#4c1384" stroke="#c084fc"/>
<text x="1464" y="206" class="legendText">Media stack</text>
<rect x="1198" y="222" width="14" height="14" rx="4" fill="#6a3415" stroke="#fb923c"/>
<text x="1222" y="234" class="legendText">Home automation</text>
<rect x="1440" y="222" width="14" height="14" rx="4" fill="#22356f" stroke="#60a5fa"/>
<text x="1464" y="234" class="legendText">Feature/application stacks</text>
<rect x="1198" y="250" width="14" height="14" rx="4" fill="#155e86" stroke="#38bdf8"/>
<text x="1222" y="262" class="legendText">Monitoring / observability</text>
<rect x="1440" y="250" width="14" height="14" rx="4" fill="#334155" stroke="#94a3b8"/>
<text x="1464" y="262" class="legendText">Simple / supporting stacks</text>
<rect x="56" y="206" width="1636" height="146" rx="24" fill="#0f172a" stroke="#334155" stroke-width="1.8"/>
<text x="78" y="238" class="hostTitle">Host summary · srv-mn</text>
<text x="78" y="264" class="meta">Proxmox VE</text>
<rect x="78" y="290" width="220" height="34" rx="12" fill="#172033" stroke="#475569"/>
<text x="92" y="312" class="hostMeta">6 cores</text>
<rect x="336" y="290" width="220" height="34" rx="12" fill="#172033" stroke="#475569"/>
<text x="350" y="312" class="hostMeta">31 GiB RAM</text>
<rect x="576" y="290" width="220" height="34" rx="12" fill="#172033" stroke="#475569"/>
<text x="590" y="312" class="hostMeta">1.8 TB NVMe</text>
<rect x="816" y="290" width="220" height="34" rx="12" fill="#172033" stroke="#475569"/>
<text x="830" y="312" class="hostMeta">5× 18.2 TB HDD · md5 RAID5 · 72.8 TB</text>
<g>
<rect x="88" y="388" width="504" height="272" rx="28" fill="url(#panel)" stroke="#34d399" stroke-width="2.3" filter="url(#shadow)"/>
<path d="M 116 388 H 564 Q 592 388 592 416 V 446 H 88 V 416 Q 88 388 116 388 Z" fill="#0f3d2e"/>
<text x="114" y="422" class="title2">LXC 101 · infra</text>
<text x="566" y="422" class="ip" text-anchor="end">10.10.0.10</text>
<text x="114" y="472" class="specs">2 vCPU · 4 GB RAM · 1 TB disk</text>
<text x="114" y="494" class="meta">Ingress, auth en shared datastores</text>
<text x="114" y="520" class="section">Primary services</text>
<rect x="114" y="532" width="142" height="34" rx="11" fill="#123528" stroke="#34d399"/>
<text x="128" y="554" class="hero">Traefik</text>
<rect x="268" y="532" width="142" height="34" rx="11" fill="#123528" stroke="#34d399"/>
<text x="282" y="554" class="hero">Authentik</text>
<rect x="422" y="532" width="142" height="34" rx="11" fill="#123528" stroke="#34d399"/>
<text x="436" y="554" class="hero">Worker</text>
<text x="114" y="592" class="section">Supporting services</text>
<line x1="334" y1="602" x2="334" y2="630" stroke="#334155" stroke-width="1" opacity="0.9"/>
<text x="116" y="618" class="bullet">•</text>
<text x="132" y="618" class="svc">Postgres</text>
<text x="116" y="638" class="bullet">•</text>
<text x="132" y="638" class="svc">MongoDB</text>
<text x="354" y="618" class="bullet">•</text>
<text x="370" y="618" class="svc">Redis</text>
<text x="354" y="638" class="bullet">•</text>
<text x="370" y="638" class="svc">Adminer</text>
</g>
<g>
<rect x="626" y="388" width="504" height="272" rx="28" fill="url(#panel)" stroke="#c084fc" stroke-width="2.3" filter="url(#shadow)"/>
<path d="M 654 388 H 1102 Q 1130 388 1130 416 V 446 H 626 V 416 Q 626 388 654 388 Z" fill="#4c1384"/>
<text x="652" y="422" class="title2">LXC 102 · media</text>
<text x="1104" y="422" class="ip" text-anchor="end">10.10.0.20</text>
<text x="652" y="472" class="specs">6 vCPU · 10 GB RAM · 500 GB disk</text>
<text x="652" y="494" class="meta">Streaming</text>
<text x="652" y="520" class="section">Primary services</text>
<rect x="652" y="532" width="142" height="34" rx="11" fill="#34135f" stroke="#c084fc"/>
<text x="666" y="554" class="hero">Plex</text>
<rect x="806" y="532" width="142" height="34" rx="11" fill="#34135f" stroke="#c084fc"/>
<text x="820" y="554" class="hero">Jellyfin</text>
<rect x="960" y="532" width="142" height="34" rx="11" fill="#34135f" stroke="#c084fc"/>
<text x="974" y="554" class="hero">Notifiarr</text>
<text x="652" y="592" class="section">Supporting services</text>
<line x1="872" y1="602" x2="872" y2="630" stroke="#334155" stroke-width="1" opacity="0.9"/>
<text x="654" y="618" class="bullet">•</text>
<text x="670" y="618" class="svc">Tracearr</text>
<text x="654" y="638" class="bullet">•</text>
<text x="670" y="638" class="svc">Watchstate</text>
<text x="892" y="618" class="bullet">•</text>
<text x="908" y="618" class="svc">Agregarr</text>
<text x="892" y="638" class="bullet">•</text>
<text x="908" y="638" class="svc">Bazarr</text>
<rect x="652" y="626" width="110" height="20" rx="10" fill="#30184e" stroke="#c084fc" opacity="0.95"/>
<text x="666" y="640" class="footer">+ 7 more</text>
</g>
<g>
<rect x="1164" y="388" width="504" height="272" rx="28" fill="url(#panel)" stroke="#fb923c" stroke-width="2.3" filter="url(#shadow)"/>
<path d="M 1192 388 H 1640 Q 1668 388 1668 416 V 446 H 1164 V 416 Q 1164 388 1192 388 Z" fill="#6a3415"/>
<text x="1190" y="422" class="title2">LXC 103 · home</text>
<text x="1642" y="422" class="ip" text-anchor="end">10.10.0.30</text>
<text x="1190" y="472" class="specs">2 vCPU · 4 GB RAM · 100 GB disk</text>
<text x="1190" y="494" class="meta">Domotica, MQTT en local automation</text>
<text x="1190" y="520" class="section">Primary services</text>
<rect x="1190" y="532" width="142" height="34" rx="11" fill="#4c2410" stroke="#fb923c"/>
<text x="1204" y="554" class="hero">Home Assistant</text>
<rect x="1344" y="532" width="142" height="34" rx="11" fill="#4c2410" stroke="#fb923c"/>
<text x="1358" y="554" class="hero">Mosquitto</text>
<rect x="1498" y="532" width="142" height="34" rx="11" fill="#4c2410" stroke="#fb923c"/>
<text x="1512" y="554" class="hero">Zigbee2MQTT</text>
<text x="1190" y="592" class="section">Supporting services</text>
<line x1="1410" y1="602" x2="1410" y2="630" stroke="#334155" stroke-width="1" opacity="0.9"/>
<text x="1192" y="618" class="bullet">•</text>
<text x="1208" y="618" class="svc">Node-RED</text>
<text x="1192" y="638" class="bullet">•</text>
<text x="1208" y="638" class="svc">Hyperion</text>
<text x="1430" y="618" class="bullet">•</text>
<text x="1446" y="618" class="svc">Music Assistant</text>
<text x="1430" y="638" class="bullet">•</text>
<text x="1446" y="638" class="svc">Frigate</text>
</g>
<g>
<rect x="88" y="694" width="504" height="272" rx="28" fill="url(#panel)" stroke="#60a5fa" stroke-width="2.3" filter="url(#shadow)"/>
<path d="M 116 694 H 564 Q 592 694 592 722 V 752 H 88 V 722 Q 88 694 116 694 Z" fill="#22356f"/>
<text x="114" y="728" class="title2">LXC 104 · productivity</text>
<text x="566" y="728" class="ip" text-anchor="end">10.10.0.40</text>
<text x="114" y="778" class="specs">2 vCPU · 2 GB RAM · 100 GB disk</text>
<text x="114" y="800" class="meta">Persoonlijke apps, documents, storage en finance</text>
<text x="114" y="826" class="section">Primary services</text>
<rect x="114" y="838" width="142" height="34" rx="11" fill="#1b2c59" stroke="#60a5fa"/>
<text x="128" y="860" class="hero">Immich</text>
<rect x="268" y="838" width="142" height="34" rx="11" fill="#1b2c59" stroke="#60a5fa"/>
<text x="282" y="860" class="hero">Paperless</text>
<rect x="422" y="838" width="142" height="34" rx="11" fill="#1b2c59" stroke="#60a5fa"/>
<text x="436" y="860" class="hero">Nextcloud</text>
<text x="114" y="898" class="section">Supporting services</text>
<line x1="334" y1="908" x2="334" y2="936" stroke="#334155" stroke-width="1" opacity="0.9"/>
<text x="116" y="924" class="bullet">•</text>
<text x="132" y="924" class="svc">Backrest</text>
<text x="354" y="924" class="bullet">•</text>
<text x="370" y="924" class="svc">Firefly III</text>
</g>
<g>
<rect x="626" y="694" width="504" height="272" rx="28" fill="url(#panel)" stroke="#60a5fa" stroke-width="2.3" filter="url(#shadow)"/>
<path d="M 654 694 H 1102 Q 1130 694 1130 722 V 752 H 626 V 722 Q 626 694 654 694 Z" fill="#22356f"/>
<text x="652" y="728" class="title2">LXC 105 · network</text>
<text x="1104" y="728" class="ip" text-anchor="end">10.10.0.50</text>
<text x="652" y="778" class="specs">1 vCPU · 2 GB RAM · 8 GB disk</text>
<text x="652" y="800" class="meta">DNS en netwerkbeheer</text>
<text x="652" y="826" class="section">Primary services</text>
<rect x="652" y="838" width="142" height="34" rx="11" fill="#1b2c59" stroke="#60a5fa"/>
<text x="666" y="860" class="hero">Pi-hole</text>
<rect x="806" y="838" width="142" height="34" rx="11" fill="#1b2c59" stroke="#60a5fa"/>
<text x="820" y="860" class="hero">UniFi Network A…</text>
<text x="652" y="898" class="section">Supporting services</text>
<line x1="872" y1="908" x2="872" y2="936" stroke="#334155" stroke-width="1" opacity="0.9"/>
</g>
<g>
<rect x="1164" y="694" width="504" height="272" rx="28" fill="url(#panel)" stroke="#38bdf8" stroke-width="2.3" filter="url(#shadow)"/>
<path d="M 1192 694 H 1640 Q 1668 694 1668 722 V 752 H 1164 V 722 Q 1164 694 1192 694 Z" fill="#155e86"/>
<text x="1190" y="728" class="title2">LXC 106 · monitoring</text>
<text x="1642" y="728" class="ip" text-anchor="end">10.10.0.60</text>
<text x="1190" y="778" class="specs">2 vCPU · 3 GB RAM · 80 GB disk</text>
<text x="1190" y="800" class="meta">Metrics, dashboards, alerts en exporters</text>
<text x="1190" y="826" class="section">Primary services</text>
<rect x="1190" y="838" width="142" height="34" rx="11" fill="#124868" stroke="#38bdf8"/>
<text x="1204" y="860" class="hero">Prometheus</text>
<rect x="1344" y="838" width="142" height="34" rx="11" fill="#124868" stroke="#38bdf8"/>
<text x="1358" y="860" class="hero">Grafana</text>
<rect x="1498" y="838" width="142" height="34" rx="11" fill="#124868" stroke="#38bdf8"/>
<text x="1512" y="860" class="hero">Alertmanager</text>
<text x="1190" y="898" class="section">Supporting services</text>
<line x1="1410" y1="908" x2="1410" y2="936" stroke="#334155" stroke-width="1" opacity="0.9"/>
<text x="1192" y="924" class="bullet">•</text>
<text x="1208" y="924" class="svc">cAdvisor</text>
<text x="1192" y="944" class="bullet">•</text>
<text x="1208" y="944" class="svc">Smartctl Exporter</text>
<text x="1430" y="924" class="bullet">•</text>
<text x="1446" y="924" class="svc">Node Exporter</text>
<text x="1430" y="944" class="bullet">•</text>
<text x="1446" y="944" class="svc">Mosquitto Exporter</text>
</g>
<g>
<rect x="88" y="1000" width="504" height="272" rx="28" fill="url(#panel)" stroke="#a1a1aa" stroke-width="2.3" filter="url(#shadow)"/>
<path d="M 116 1000 H 564 Q 592 1000 592 1028 V 1058 H 88 V 1028 Q 88 1000 116 1000 Z" fill="#52525b"/>
<text x="114" y="1034" class="title2">LXC 107 · utilities</text>
<text x="566" y="1034" class="ip" text-anchor="end">10.10.0.70</text>
<text x="114" y="1084" class="specs">1 vCPU · 1 GB RAM · 8 GB disk</text>
<text x="114" y="1106" class="meta">Kleine losse tools en 3D-print utilities</text>
<text x="114" y="1132" class="section">Primary services</text>
<rect x="114" y="1144" width="142" height="34" rx="11" fill="#3f3f46" stroke="#a1a1aa"/>
<text x="128" y="1166" class="hero">IT-Tools</text>
<rect x="268" y="1144" width="142" height="34" rx="11" fill="#3f3f46" stroke="#a1a1aa"/>
<text x="282" y="1166" class="hero">Omni-Tools</text>
<rect x="422" y="1144" width="142" height="34" rx="11" fill="#3f3f46" stroke="#a1a1aa"/>
<text x="436" y="1166" class="hero">Spoolman</text>
<text x="114" y="1204" class="section">Supporting services</text>
<line x1="334" y1="1214" x2="334" y2="1242" stroke="#334155" stroke-width="1" opacity="0.9"/>
<text x="116" y="1230" class="bullet">•</text>
<text x="132" y="1230" class="svc">Printer Calculator</text>
</g>
<g>
<rect x="626" y="1000" width="504" height="272" rx="28" fill="url(#panel)" stroke="#94a3b8" stroke-width="2.3" filter="url(#shadow)"/>
<path d="M 654 1000 H 1102 Q 1130 1000 1130 1028 V 1058 H 626 V 1028 Q 626 1000 654 1000 Z" fill="#334155"/>
<text x="652" y="1034" class="title2">LXC 108 · openclaw</text>
<text x="1104" y="1034" class="ip" text-anchor="end">10.10.0.80</text>
<text x="652" y="1084" class="specs">4 vCPU · 4 GB RAM · 100 GB disk</text>
<text x="652" y="1106" class="meta">Simple representation only</text>
<text x="652" y="1132" class="section">Primary services</text>
<rect x="652" y="1144" width="142" height="34" rx="11" fill="#263445" stroke="#94a3b8"/>
<text x="666" y="1166" class="hero">OpenClaw</text>
<text x="652" y="1204" class="section">Supporting services</text>
<line x1="872" y1="1214" x2="872" y2="1242" stroke="#334155" stroke-width="1" opacity="0.9"/>
</g>
<g>
<rect x="1164" y="1000" width="504" height="272" rx="28" fill="url(#panel)" stroke="#94a3b8" stroke-width="2.3" filter="url(#shadow)"/>
<path d="M 1192 1000 H 1640 Q 1668 1000 1668 1028 V 1058 H 1164 V 1028 Q 1164 1000 1192 1000 Z" fill="#334155"/>
<text x="1190" y="1034" class="title2">LXC 109 · money</text>
<text x="1642" y="1034" class="ip" text-anchor="end">10.10.0.90</text>
<text x="1190" y="1084" class="specs">2 vCPU · 2 GB RAM · 100 GB disk</text>
<text x="1190" y="1106" class="meta">Simple representation only</text>
<text x="1190" y="1132" class="section">Primary services</text>
<rect x="1190" y="1144" width="142" height="34" rx="11" fill="#263445" stroke="#94a3b8"/>
<text x="1204" y="1166" class="hero">Money</text>
<text x="1190" y="1204" class="section">Supporting services</text>
<line x1="1410" y1="1214" x2="1410" y2="1242" stroke="#334155" stroke-width="1" opacity="0.9"/>
</g>
</svg>
