<svg xmlns="http://www.w3.org/2000/svg" width="1760" height="1368" viewBox="0 0 1760 1368" role="img" aria-labelledby="title desc">
  <title id="title">Meelsnet Server · Homelab Architecture</title>
  <desc id="desc">Actuele Proxmox/LXC-indeling met compacte stacksamenvatting per container.</desc>
  <defs>
    <linearGradient id="bg" x1="0" y1="0" x2="1" y2="1">
      <stop offset="0%" stop-color="#0b1220"/>
      <stop offset="100%" stop-color="#111827"/>
    </linearGradient>
    <linearGradient id="panel" x1="0" y1="0" x2="0" y2="1">
      <stop offset="0%" stop-color="#182236"/>
      <stop offset="100%" stop-color="#121a2b"/>
    </linearGradient>
    <filter id="shadow" x="-20%" y="-20%" width="140%" height="140%">
      <feDropShadow dx="0" dy="12" stdDeviation="16" flood-color="#020617" flood-opacity="0.34"/>
    </filter>
    <style>
      .title1 { font: 700 40px Inter,Segoe UI,Arial,sans-serif; fill: #f8fafc; }
      .subtitle1 { font: 400 18px Inter,Segoe UI,Arial,sans-serif; fill: #94a3b8; }
      .title2 { font: 700 18px Inter,Segoe UI,Arial,sans-serif; fill: #f8fafc; }
      .meta { font: 400 14px Inter,Segoe UI,Arial,sans-serif; fill: #a8b3c7; }
      .ip { font: 700 14px Inter,Segoe UI,Arial,sans-serif; fill: #dbe4ee; }
      .specs { font: 600 12px Inter,Segoe UI,Arial,sans-serif; fill: #cbd5e1; }
      .hero { font: 600 13px Inter,Segoe UI,Arial,sans-serif; fill: #f8fafc; }
      .svc { font: 600 13px Inter,Segoe UI,Arial,sans-serif; fill: #dbe4ee; }
      .bullet { font: 700 13px Inter,Segoe UI,Arial,sans-serif; fill: #cbd5e1; }
      .section { font: 700 12px Inter,Segoe UI,Arial,sans-serif; fill: #94a3b8; letter-spacing: 0.08em; text-transform: uppercase; }
      .legendTitle { font: 700 16px Inter,Segoe UI,Arial,sans-serif; fill: #f8fafc; }
      .legendText { font: 600 13px Inter,Segoe UI,Arial,sans-serif; fill: #e2e8f0; }
      .footer { font: 600 12px Inter,Segoe UI,Arial,sans-serif; fill: #dbe4ee; }
      .hostTitle { font: 700 18px Inter,Segoe UI,Arial,sans-serif; fill: #f8fafc; }
      .hostMeta { font: 600 13px Inter,Segoe UI,Arial,sans-serif; fill: #dbe4ee; }
    </style>
  </defs>
  <rect width="1760" height="1368" fill="url(#bg)"/>
  <text x="56" y="64" class="title1">Meelsnet Server · Homelab Architecture</text>
  <text x="56" y="96" class="subtitle1">Actuele Proxmox/LXC-indeling met compacte stacksamenvatting per container.</text>
  <rect x="36" y="126" width="1688" height="1206" rx="32" fill="rgba(15,23,42,0.58)" stroke="#334155" stroke-width="2.2" filter="url(#shadow)"/>

<rect x="56" y="144" width="250" height="42" rx="14" fill="#111827" stroke="#94a3b8" stroke-width="1.8"/>
<text x="72" y="170" class="meta">Proxmox host · srv-mn</text>
<rect x="324" y="144" width="280" height="42" rx="14" fill="#111827" stroke="#60a5fa" stroke-width="1.8"/>
<text x="340" y="170" class="meta">vmbr0 · LAN · 192.168.2.0/24</text>
<rect x="622" y="144" width="300" height="42" rx="14" fill="#111827" stroke="#c084fc" stroke-width="1.8"/>
<text x="638" y="170" class="meta">vmbr1 · Service net · 10.10.0.0/24</text>
<rect x="1180" y="144" width="512" height="100" rx="20" fill="#0f172a" stroke="#334155" stroke-width="1.8"/>
<text x="1198" y="172" class="legendTitle">Legend</text>
<rect x="1198" y="192" width="14" height="14" rx="4" fill="#0f3d2e" stroke="#34d399"/>
<text x="1222" y="204" class="legendText">Core infrastructure</text>
<rect x="1440" y="192" width="14" height="14" rx="4" fill="#4c1384" stroke="#c084fc"/>
<text x="1464" y="204" class="legendText">Media stack</text>
<rect x="1198" y="216" width="14" height="14" rx="4" fill="#6a3415" stroke="#fb923c"/>
<text x="1222" y="228" class="legendText">Home automation</text>
<rect x="1440" y="216" width="14" height="14" rx="4" fill="#22356f" stroke="#60a5fa"/>
<text x="1464" y="228" class="legendText">Feature/application stacks</text>
<rect x="1198" y="240" width="14" height="14" rx="4" fill="#155e86" stroke="#38bdf8"/>
<text x="1222" y="252" class="legendText">Monitoring / observability</text>
<rect x="1440" y="240" width="14" height="14" rx="4" fill="#334155" stroke="#94a3b8"/>
<text x="1464" y="252" class="legendText">Simple / supporting stacks</text>
<rect x="56" y="262" width="1636" height="126" rx="24" fill="#0f172a" stroke="#334155" stroke-width="1.8"/>
<text x="78" y="294" class="hostTitle">Host summary · srv-mn</text>
<text x="78" y="320" class="meta">Proxmox VE</text>
<rect x="78" y="340" width="190" height="34" rx="12" fill="#172033" stroke="#475569"/>
<text x="92" y="362" class="hostMeta">6 cores</text>
<rect x="336" y="340" width="190" height="34" rx="12" fill="#172033" stroke="#475569"/>
<text x="350" y="362" class="hostMeta">32 GiB RAM</text>
<rect x="576" y="340" width="190" height="34" rx="12" fill="#172033" stroke="#475569"/>
<text x="590" y="362" class="hostMeta">2 TB NVMe</text>
<rect x="816" y="340" width="320" height="34" rx="12" fill="#172033" stroke="#475569"/>
<text x="830" y="362" class="hostMeta">5× 20 TB HDD · RAID5 · 80 TB</text>
<g>
<rect x="88" y="430" width="504" height="276" rx="28" fill="url(#panel)" stroke="#34d399" stroke-width="2.3" filter="url(#shadow)"/>
<path d="M 116 430 H 564 Q 592 430 592 458 V 488 H 88 V 458 Q 88 430 116 430 Z" fill="#0f3d2e"/>
<text x="114" y="464" class="title2">LXC 101 · infra</text>
<text x="566" y="464" class="ip" text-anchor="end">10.10.0.10</text>
<text x="114" y="514" class="specs">2 vCPU · 4 GB RAM</text>
<text x="114" y="536" class="meta">Ingress, auth en shared datastores</text>
<text x="114" y="562" class="section">Primary services</text>
<rect x="114" y="574" width="142" height="34" rx="11" fill="#123528" stroke="#34d399"/>
<text x="128" y="596" class="hero">Traefik</text>
<rect x="268" y="574" width="142" height="34" rx="11" fill="#123528" stroke="#34d399"/>
<text x="282" y="596" class="hero">Authentik</text>
<rect x="422" y="574" width="142" height="34" rx="11" fill="#123528" stroke="#34d399"/>
<text x="436" y="596" class="hero">Worker</text>
<text x="114" y="634" class="section">Supporting services</text>
<line x1="334" y1="644" x2="334" y2="682" stroke="#334155" stroke-width="1" opacity="0.9"/>
<text x="116" y="660" class="bullet">•</text>
<text x="132" y="660" class="svc">Postgres</text>
<text x="116" y="680" class="bullet">•</text>
<text x="132" y="680" class="svc">MongoDB</text>
<text x="354" y="660" class="bullet">•</text>
<text x="370" y="660" class="svc">Redis</text>
<text x="354" y="680" class="bullet">•</text>
<text x="370" y="680" class="svc">Adminer</text>
<line x1="114" y1="664" x2="566" y2="664" stroke="#2b3a4f" stroke-width="1" opacity="0.9"/>
</g>
<g>
<rect x="626" y="430" width="504" height="276" rx="28" fill="url(#panel)" stroke="#c084fc" stroke-width="2.3" filter="url(#shadow)"/>
<path d="M 654 430 H 1102 Q 1130 430 1130 458 V 488 H 626 V 458 Q 626 430 654 430 Z" fill="#4c1384"/>
<text x="652" y="464" class="title2">LXC 102 · media</text>
<text x="1104" y="464" class="ip" text-anchor="end">10.10.0.20</text>
<text x="652" y="514" class="specs">6 vCPU · 10 GB RAM</text>
<text x="652" y="536" class="meta">Streaming</text>
<text x="652" y="562" class="section">Primary services</text>
<rect x="652" y="574" width="142" height="34" rx="11" fill="#34135f" stroke="#c084fc"/>
<text x="666" y="596" class="hero">Plex</text>
<rect x="806" y="574" width="142" height="34" rx="11" fill="#34135f" stroke="#c084fc"/>
<text x="820" y="596" class="hero">Jellyfin</text>
<rect x="960" y="574" width="142" height="34" rx="11" fill="#34135f" stroke="#c084fc"/>
<text x="974" y="596" class="hero">Notifiarr</text>
<text x="652" y="634" class="section">Supporting services</text>
<line x1="872" y1="644" x2="872" y2="682" stroke="#334155" stroke-width="1" opacity="0.9"/>
<text x="654" y="660" class="bullet">•</text>
<text x="670" y="660" class="svc">Tracearr</text>
<text x="654" y="680" class="bullet">•</text>
<text x="670" y="680" class="svc">Watchstate</text>
<text x="892" y="660" class="bullet">•</text>
<text x="908" y="660" class="svc">Agregarr</text>
<text x="892" y="680" class="bullet">•</text>
<text x="908" y="680" class="svc">Bazarr</text>
<line x1="652" y1="664" x2="1104" y2="664" stroke="#2b3a4f" stroke-width="1" opacity="0.9"/>
<rect x="652" y="672" width="110" height="20" rx="10" fill="#30184e" stroke="#c084fc" opacity="0.95"/>
<text x="666" y="686" class="footer">+ 7 more</text>
</g>
<g>
<rect x="1164" y="430" width="504" height="276" rx="28" fill="url(#panel)" stroke="#fb923c" stroke-width="2.3" filter="url(#shadow)"/>
<path d="M 1192 430 H 1640 Q 1668 430 1668 458 V 488 H 1164 V 458 Q 1164 430 1192 430 Z" fill="#6a3415"/>
<text x="1190" y="464" class="title2">LXC 103 · home</text>
<text x="1642" y="464" class="ip" text-anchor="end">10.10.0.30</text>
<text x="1190" y="514" class="specs">2 vCPU · 4 GB RAM</text>
<text x="1190" y="536" class="meta">Domotica, MQTT en local automation</text>
<text x="1190" y="562" class="section">Primary services</text>
<rect x="1190" y="574" width="142" height="34" rx="11" fill="#4c2410" stroke="#fb923c"/>
<text x="1204" y="596" class="hero">Home Assistant</text>
<rect x="1344" y="574" width="142" height="34" rx="11" fill="#4c2410" stroke="#fb923c"/>
<text x="1358" y="596" class="hero">Mosquitto</text>
<rect x="1498" y="574" width="142" height="34" rx="11" fill="#4c2410" stroke="#fb923c"/>
<text x="1512" y="596" class="hero">Zigbee2MQTT</text>
<text x="1190" y="634" class="section">Supporting services</text>
<line x1="1410" y1="644" x2="1410" y2="682" stroke="#334155" stroke-width="1" opacity="0.9"/>
<text x="1192" y="660" class="bullet">•</text>
<text x="1208" y="660" class="svc">Node-RED</text>
<text x="1192" y="680" class="bullet">•</text>
<text x="1208" y="680" class="svc">Hyperion</text>
<text x="1430" y="660" class="bullet">•</text>
<text x="1446" y="660" class="svc">Music Assistant</text>
<text x="1430" y="680" class="bullet">•</text>
<text x="1446" y="680" class="svc">Frigate</text>
<line x1="1190" y1="664" x2="1642" y2="664" stroke="#2b3a4f" stroke-width="1" opacity="0.9"/>
</g>
<g>
<rect x="88" y="740" width="504" height="276" rx="28" fill="url(#panel)" stroke="#60a5fa" stroke-width="2.3" filter="url(#shadow)"/>
<path d="M 116 740 H 564 Q 592 740 592 768 V 798 H 88 V 768 Q 88 740 116 740 Z" fill="#22356f"/>
<text x="114" y="774" class="title2">LXC 104 · productivity</text>
<text x="566" y="774" class="ip" text-anchor="end">10.10.0.40</text>
<text x="114" y="824" class="specs">2 vCPU · 2 GB RAM</text>
<text x="114" y="846" class="meta">Persoonlijke apps, documents, storage en finance</text>
<text x="114" y="872" class="section">Primary services</text>
<rect x="114" y="884" width="142" height="34" rx="11" fill="#1b2c59" stroke="#60a5fa"/>
<text x="128" y="906" class="hero">Immich</text>
<rect x="268" y="884" width="142" height="34" rx="11" fill="#1b2c59" stroke="#60a5fa"/>
<text x="282" y="906" class="hero">Paperless</text>
<rect x="422" y="884" width="142" height="34" rx="11" fill="#1b2c59" stroke="#60a5fa"/>
<text x="436" y="906" class="hero">Nextcloud</text>
<text x="114" y="944" class="section">Supporting services</text>
<line x1="334" y1="954" x2="334" y2="992" stroke="#334155" stroke-width="1" opacity="0.9"/>
<text x="116" y="970" class="bullet">•</text>
<text x="132" y="970" class="svc">Backrest</text>
<text x="354" y="970" class="bullet">•</text>
<text x="370" y="970" class="svc">Firefly III</text>
<line x1="114" y1="974" x2="566" y2="974" stroke="#2b3a4f" stroke-width="1" opacity="0.9"/>
</g>
<g>
<rect x="626" y="740" width="504" height="276" rx="28" fill="url(#panel)" stroke="#60a5fa" stroke-width="2.3" filter="url(#shadow)"/>
<path d="M 654 740 H 1102 Q 1130 740 1130 768 V 798 H 626 V 768 Q 626 740 654 740 Z" fill="#22356f"/>
<text x="652" y="774" class="title2">LXC 105 · network</text>
<text x="1104" y="774" class="ip" text-anchor="end">10.10.0.50</text>
<text x="652" y="824" class="specs">1 vCPU · 2 GB RAM</text>
<text x="652" y="846" class="meta">DNS en netwerkbeheer</text>
<text x="652" y="872" class="section">Primary services</text>
<rect x="652" y="884" width="142" height="34" rx="11" fill="#1b2c59" stroke="#60a5fa"/>
<text x="666" y="906" class="hero">Pi-hole</text>
<rect x="806" y="884" width="142" height="34" rx="11" fill="#1b2c59" stroke="#60a5fa"/>
<text x="820" y="906" class="hero">UniFi Network A…</text>
<text x="652" y="944" class="section">Supporting services</text>
<line x1="872" y1="954" x2="872" y2="992" stroke="#334155" stroke-width="1" opacity="0.9"/>
<line x1="652" y1="974" x2="1104" y2="974" stroke="#2b3a4f" stroke-width="1" opacity="0.9"/>
</g>
<g>
<rect x="1164" y="740" width="504" height="276" rx="28" fill="url(#panel)" stroke="#38bdf8" stroke-width="2.3" filter="url(#shadow)"/>
<path d="M 1192 740 H 1640 Q 1668 740 1668 768 V 798 H 1164 V 768 Q 1164 740 1192 740 Z" fill="#155e86"/>
<text x="1190" y="774" class="title2">LXC 106 · monitoring</text>
<text x="1642" y="774" class="ip" text-anchor="end">10.10.0.60</text>
<text x="1190" y="824" class="specs">2 vCPU · 3 GB RAM</text>
<text x="1190" y="846" class="meta">Metrics, dashboards, alerts en exporters</text>
<text x="1190" y="872" class="section">Primary services</text>
<rect x="1190" y="884" width="142" height="34" rx="11" fill="#124868" stroke="#38bdf8"/>
<text x="1204" y="906" class="hero">Prometheus</text>
<rect x="1344" y="884" width="142" height="34" rx="11" fill="#124868" stroke="#38bdf8"/>
<text x="1358" y="906" class="hero">Grafana</text>
<rect x="1498" y="884" width="142" height="34" rx="11" fill="#124868" stroke="#38bdf8"/>
<text x="1512" y="906" class="hero">Alertmanager</text>
<text x="1190" y="944" class="section">Supporting services</text>
<line x1="1410" y1="954" x2="1410" y2="992" stroke="#334155" stroke-width="1" opacity="0.9"/>
<text x="1192" y="970" class="bullet">•</text>
<text x="1208" y="970" class="svc">cAdvisor</text>
<text x="1192" y="990" class="bullet">•</text>
<text x="1208" y="990" class="svc">Smartctl Exporter</text>
<text x="1430" y="970" class="bullet">•</text>
<text x="1446" y="970" class="svc">Node Exporter</text>
<text x="1430" y="990" class="bullet">•</text>
<text x="1446" y="990" class="svc">Mosquitto Exporter</text>
<line x1="1190" y1="974" x2="1642" y2="974" stroke="#2b3a4f" stroke-width="1" opacity="0.9"/>
</g>
<g>
<rect x="88" y="1050" width="504" height="276" rx="28" fill="url(#panel)" stroke="#a1a1aa" stroke-width="2.3" filter="url(#shadow)"/>
<path d="M 116 1050 H 564 Q 592 1050 592 1078 V 1108 H 88 V 1078 Q 88 1050 116 1050 Z" fill="#52525b"/>
<text x="114" y="1084" class="title2">LXC 107 · utilities</text>
<text x="566" y="1084" class="ip" text-anchor="end">10.10.0.70</text>
<text x="114" y="1134" class="specs">1 vCPU · 1 GB RAM</text>
<text x="114" y="1156" class="meta">Kleine losse tools en 3D-print utilities</text>
<text x="114" y="1182" class="section">Primary services</text>
<rect x="114" y="1194" width="142" height="34" rx="11" fill="#3f3f46" stroke="#a1a1aa"/>
<text x="128" y="1216" class="hero">IT-Tools</text>
<rect x="268" y="1194" width="142" height="34" rx="11" fill="#3f3f46" stroke="#a1a1aa"/>
<text x="282" y="1216" class="hero">Omni-Tools</text>
<rect x="422" y="1194" width="142" height="34" rx="11" fill="#3f3f46" stroke="#a1a1aa"/>
<text x="436" y="1216" class="hero">Spoolman</text>
<text x="114" y="1254" class="section">Supporting services</text>
<line x1="334" y1="1264" x2="334" y2="1302" stroke="#334155" stroke-width="1" opacity="0.9"/>
<text x="116" y="1280" class="bullet">•</text>
<text x="132" y="1280" class="svc">Printer Calculator</text>
<line x1="114" y1="1284" x2="566" y2="1284" stroke="#2b3a4f" stroke-width="1" opacity="0.9"/>
</g>
<g>
<rect x="626" y="1050" width="504" height="276" rx="28" fill="url(#panel)" stroke="#94a3b8" stroke-width="2.3" filter="url(#shadow)"/>
<path d="M 654 1050 H 1102 Q 1130 1050 1130 1078 V 1108 H 626 V 1078 Q 626 1050 654 1050 Z" fill="#334155"/>
<text x="652" y="1084" class="title2">LXC 108 · openclaw</text>
<text x="1104" y="1084" class="ip" text-anchor="end">10.10.0.80</text>
<text x="652" y="1134" class="specs">4 vCPU · 4 GB RAM</text>
<text x="652" y="1156" class="meta">Simple representation only</text>
<text x="652" y="1182" class="section">Primary services</text>
<rect x="652" y="1194" width="142" height="34" rx="11" fill="#263445" stroke="#94a3b8"/>
<text x="666" y="1216" class="hero">OpenClaw</text>
<text x="652" y="1254" class="section">Supporting services</text>
<line x1="872" y1="1264" x2="872" y2="1302" stroke="#334155" stroke-width="1" opacity="0.9"/>
<line x1="652" y1="1284" x2="1104" y2="1284" stroke="#2b3a4f" stroke-width="1" opacity="0.9"/>
</g>
<g>
<rect x="1164" y="1050" width="504" height="276" rx="28" fill="url(#panel)" stroke="#94a3b8" stroke-width="2.3" filter="url(#shadow)"/>
<path d="M 1192 1050 H 1640 Q 1668 1050 1668 1078 V 1108 H 1164 V 1078 Q 1164 1050 1192 1050 Z" fill="#334155"/>
<text x="1190" y="1084" class="title2">LXC 109 · money</text>
<text x="1642" y="1084" class="ip" text-anchor="end">10.10.0.90</text>
<text x="1190" y="1134" class="specs">2 vCPU · 2 GB RAM</text>
<text x="1190" y="1156" class="meta">Simple representation only</text>
<text x="1190" y="1182" class="section">Primary services</text>
<rect x="1190" y="1194" width="142" height="34" rx="11" fill="#263445" stroke="#94a3b8"/>
<text x="1204" y="1216" class="hero">Money</text>
<text x="1190" y="1254" class="section">Supporting services</text>
<line x1="1410" y1="1264" x2="1410" y2="1302" stroke="#334155" stroke-width="1" opacity="0.9"/>
<line x1="1190" y1="1284" x2="1642" y2="1284" stroke="#2b3a4f" stroke-width="1" opacity="0.9"/>
</g>
</svg>
