<svg xmlns="http://www.w3.org/2000/svg" width="1760" height="1170" viewBox="0 0 1760 1170" role="img" aria-labelledby="title desc">
  <title id="title">Meelsnet Server · Homelab Architecture (dark)</title>
  <desc id="desc">Actuele Proxmox/LXC-indeling met compacte stacksamenvatting per container.</desc>
  <defs>
    <linearGradient id="panel" x1="0" y1="0" x2="0" y2="1">
      <stop offset="0%" stop-color="#161b22"/>
      <stop offset="100%" stop-color="#11161d"/>
    </linearGradient>
    <filter id="shadow" x="-20%" y="-20%" width="140%" height="140%">
      <feDropShadow dx="0" dy="10" stdDeviation="14" flood-color="#000000" flood-opacity="0.18"/>
    </filter>
    <style>
      .title1 { font: 700 40px Inter,Segoe UI,Arial,sans-serif; fill: #f0f6fc; }
      .subtitle1 { font: 400 18px Inter,Segoe UI,Arial,sans-serif; fill: #8b949e; }
      .title2 { font: 700 18px Inter,Segoe UI,Arial,sans-serif; fill: #f0f6fc; }
      .meta { font: 400 14px Inter,Segoe UI,Arial,sans-serif; fill: #8b949e; }
      .specs { font: 600 12px Inter,Segoe UI,Arial,sans-serif; fill: #c9d1d9; }
      .ip { font: 700 14px Inter,Segoe UI,Arial,sans-serif; fill: #f0f6fc; }
      .service { font: 600 13px Inter,Segoe UI,Arial,sans-serif; fill: #e6edf3; }
      .serviceMuted { font: 600 13px Inter,Segoe UI,Arial,sans-serif; fill: #c9d1d9; }
      .legendTitle { font: 700 16px Inter,Segoe UI,Arial,sans-serif; fill: #f0f6fc; }
      .legendText { font: 600 13px Inter,Segoe UI,Arial,sans-serif; fill: #e6edf3; }
      .hostTitle { font: 700 18px Inter,Segoe UI,Arial,sans-serif; fill: #f0f6fc; }
      .hostMeta { font: 600 13px Inter,Segoe UI,Arial,sans-serif; fill: #e6edf3; }
      .footer { font: 500 12px Inter,Segoe UI,Arial,sans-serif; fill: #8b949e; }
    </style>
  </defs>
  <rect width="1760" height="1170" fill="#0d1117"/>
  <text x="56" y="64" class="title1">Meelsnet Server · Homelab Architecture</text>
  <text x="56" y="96" class="subtitle1">Actuele Proxmox/LXC-indeling met compacte stacksamenvatting per container.</text>
  <rect x="36" y="126" width="1688" height="1008" rx="32" fill="rgba(22,27,34,0.92)" stroke="#30363d" stroke-width="2.2" filter="url(#shadow)"/>

<rect x="56" y="144" width="250" height="42" rx="14" fill="#0d1117" stroke="#94a3b8" stroke-width="1.8"/>
<text x="72" y="170" class="meta">Proxmox host · srv-mn</text>
<rect x="324" y="144" width="280" height="42" rx="14" fill="#0d1117" stroke="#60a5fa" stroke-width="1.8"/>
<text x="340" y="170" class="meta">vmbr0 · LAN · 192.168.2.0/24</text>
<rect x="622" y="144" width="300" height="42" rx="14" fill="#0d1117" stroke="#c084fc" stroke-width="1.8"/>
<text x="638" y="170" class="meta">vmbr1 · Service net · 10.10.0.0/24</text>
<rect x="88" y="206" width="1084" height="126" rx="24" fill="#161b22" stroke="#30363d" stroke-width="1.8"/>
<text x="110" y="238" class="hostTitle">Host summary · srv-mn</text>
<text x="110" y="264" class="meta">Proxmox VE</text>
<rect x="110" y="282" width="190" height="32" rx="11" fill="#0d1117" stroke="#30363d"/>
<text x="124" y="303" class="hostMeta">6 cores</text>
<rect x="334" y="282" width="190" height="32" rx="11" fill="#0d1117" stroke="#30363d"/>
<text x="348" y="303" class="hostMeta">32 GiB RAM</text>
<rect x="558" y="282" width="190" height="32" rx="11" fill="#0d1117" stroke="#30363d"/>
<text x="572" y="303" class="hostMeta">2 TB NVMe</text>
<rect x="782" y="282" width="368" height="32" rx="11" fill="#0d1117" stroke="#30363d"/>
<text x="796" y="303" class="hostMeta">5× 20 TB HDD · RAID5 · 80 TB</text>
<rect x="1206" y="206" width="462" height="126" rx="24" fill="#161b22" stroke="#30363d" stroke-width="1.8"/>
<text x="1224" y="238" class="legendTitle">Legend</text>
<rect x="1224" y="256" width="14" height="14" rx="4" fill="#0f3d2e" stroke="#34d399"/>
<text x="1248" y="268" class="legendText">Core infrastructure</text>
<rect x="1434" y="256" width="14" height="14" rx="4" fill="#4c1384" stroke="#c084fc"/>
<text x="1458" y="268" class="legendText">Media stack</text>
<rect x="1224" y="280" width="14" height="14" rx="4" fill="#6a3415" stroke="#fb923c"/>
<text x="1248" y="292" class="legendText">Home automation</text>
<rect x="1434" y="280" width="14" height="14" rx="4" fill="#22356f" stroke="#60a5fa"/>
<text x="1458" y="292" class="legendText">Feature/application stacks</text>
<rect x="1224" y="304" width="14" height="14" rx="4" fill="#155e86" stroke="#38bdf8"/>
<text x="1248" y="316" class="legendText">Monitoring / observability</text>
<rect x="1434" y="304" width="14" height="14" rx="4" fill="#334155" stroke="#94a3b8"/>
<text x="1458" y="316" class="legendText">Simple / supporting stacks</text><g>
<rect x="88" y="396" width="504" height="212" rx="22" fill="url(#panel)" stroke="#34d399" stroke-width="2.0" filter="url(#shadow)"/>
<path d="M 110 396 H 570 Q 592 396 592 418 V 450 H 88 V 418 Q 88 396 110 396 Z" fill="#0f3d2e" stroke="#34d399" stroke-width="0"/>
<text x="110" y="429" class="title2">LXC 101 · infra</text>
<text x="570" y="429" class="ip" text-anchor="end">10.10.0.10</text>
<text x="110" y="474" class="specs">2 vCPU · 4 GB RAM</text>
<text x="110" y="494" class="meta">Ingress, auth en shared datastores</text>
<text x="110" y="522" class="service">Traefik</text>
<text x="110" y="540" class="service">Authentik</text>
<text x="110" y="558" class="serviceMuted">Worker</text>
<text x="110" y="576" class="serviceMuted">Postgres</text>
<text x="362" y="522" class="service">Redis</text>
<text x="362" y="540" class="service">MongoDB</text>
<text x="362" y="558" class="serviceMuted">Adminer</text>
<text x="362" y="576" class="serviceMuted">Mongo Express</text>
</g><g>
<rect x="626" y="396" width="504" height="212" rx="22" fill="url(#panel)" stroke="#c084fc" stroke-width="2.0" filter="url(#shadow)"/>
<path d="M 648 396 H 1108 Q 1130 396 1130 418 V 450 H 626 V 418 Q 626 396 648 396 Z" fill="#4c1384" stroke="#c084fc" stroke-width="0"/>
<text x="648" y="429" class="title2">LXC 102 · media</text>
<text x="1108" y="429" class="ip" text-anchor="end">10.10.0.20</text>
<text x="648" y="474" class="specs">6 vCPU · 10 GB RAM</text>
<text x="648" y="494" class="meta">Streaming</text>
<text x="648" y="522" class="service">Plex</text>
<text x="648" y="540" class="service">Jellyfin</text>
<text x="648" y="558" class="serviceMuted">Notifiarr</text>
<text x="648" y="576" class="serviceMuted">Tracearr</text>
<text x="900" y="522" class="service">Agregarr</text>
<text x="900" y="540" class="service">Watchstate</text>
<text x="900" y="558" class="serviceMuted">Bazarr</text>
<text x="900" y="576" class="serviceMuted">Tautulli</text>
<text x="648" y="590" class="footer">+ 7 more</text>
</g><g>
<rect x="1164" y="396" width="504" height="212" rx="22" fill="url(#panel)" stroke="#fb923c" stroke-width="2.0" filter="url(#shadow)"/>
<path d="M 1186 396 H 1646 Q 1668 396 1668 418 V 450 H 1164 V 418 Q 1164 396 1186 396 Z" fill="#6a3415" stroke="#fb923c" stroke-width="0"/>
<text x="1186" y="429" class="title2">LXC 103 · home</text>
<text x="1646" y="429" class="ip" text-anchor="end">10.10.0.30</text>
<text x="1186" y="474" class="specs">2 vCPU · 4 GB RAM</text>
<text x="1186" y="494" class="meta">Domotica, MQTT en local automation</text>
<text x="1186" y="522" class="service">Home Assistant</text>
<text x="1186" y="540" class="service">Mosquitto</text>
<text x="1186" y="558" class="serviceMuted">Zigbee2MQTT</text>
<text x="1186" y="576" class="serviceMuted">Node-RED</text>
<text x="1438" y="522" class="service">Music Assistant</text>
<text x="1438" y="540" class="service">Hyperion</text>
<text x="1438" y="558" class="serviceMuted">Frigate</text>
</g><g>
<rect x="88" y="638" width="504" height="212" rx="22" fill="url(#panel)" stroke="#60a5fa" stroke-width="2.0" filter="url(#shadow)"/>
<path d="M 110 638 H 570 Q 592 638 592 660 V 692 H 88 V 660 Q 88 638 110 638 Z" fill="#22356f" stroke="#60a5fa" stroke-width="0"/>
<text x="110" y="671" class="title2">LXC 104 · productivity</text>
<text x="570" y="671" class="ip" text-anchor="end">10.10.0.40</text>
<text x="110" y="716" class="specs">2 vCPU · 2 GB RAM</text>
<text x="110" y="736" class="meta">Persoonlijke apps, documents, storage en finance</text>
<text x="110" y="764" class="service">Immich</text>
<text x="110" y="782" class="service">Paperless</text>
<text x="110" y="800" class="serviceMuted">Nextcloud</text>
<text x="110" y="818" class="serviceMuted">Backrest</text>
<text x="362" y="764" class="service">Firefly III</text>
</g><g>
<rect x="626" y="638" width="504" height="212" rx="22" fill="url(#panel)" stroke="#60a5fa" stroke-width="2.0" filter="url(#shadow)"/>
<path d="M 648 638 H 1108 Q 1130 638 1130 660 V 692 H 626 V 660 Q 626 638 648 638 Z" fill="#22356f" stroke="#60a5fa" stroke-width="0"/>
<text x="648" y="671" class="title2">LXC 105 · network</text>
<text x="1108" y="671" class="ip" text-anchor="end">10.10.0.50</text>
<text x="648" y="716" class="specs">1 vCPU · 2 GB RAM</text>
<text x="648" y="736" class="meta">DNS en netwerkbeheer</text>
<text x="648" y="764" class="service">Pi-hole</text>
<text x="648" y="782" class="service">UniFi Network Applicati…</text>
</g><g>
<rect x="1164" y="638" width="504" height="212" rx="22" fill="url(#panel)" stroke="#38bdf8" stroke-width="2.0" filter="url(#shadow)"/>
<path d="M 1186 638 H 1646 Q 1668 638 1668 660 V 692 H 1164 V 660 Q 1164 638 1186 638 Z" fill="#155e86" stroke="#38bdf8" stroke-width="0"/>
<text x="1186" y="671" class="title2">LXC 106 · monitoring</text>
<text x="1646" y="671" class="ip" text-anchor="end">10.10.0.60</text>
<text x="1186" y="716" class="specs">2 vCPU · 3 GB RAM</text>
<text x="1186" y="736" class="meta">Metrics, dashboards, alerts en exporters</text>
<text x="1186" y="764" class="service">Prometheus</text>
<text x="1186" y="782" class="service">Grafana</text>
<text x="1186" y="800" class="serviceMuted">Alertmanager</text>
<text x="1186" y="818" class="serviceMuted">cAdvisor</text>
<text x="1438" y="764" class="service">Node Exporter</text>
<text x="1438" y="782" class="service">Smartctl Exporter</text>
<text x="1438" y="800" class="serviceMuted">Mosquitto Exporter</text>
</g><g>
<rect x="88" y="880" width="504" height="212" rx="22" fill="url(#panel)" stroke="#a1a1aa" stroke-width="2.0" filter="url(#shadow)"/>
<path d="M 110 880 H 570 Q 592 880 592 902 V 934 H 88 V 902 Q 88 880 110 880 Z" fill="#52525b" stroke="#a1a1aa" stroke-width="0"/>
<text x="110" y="913" class="title2">LXC 107 · utilities</text>
<text x="570" y="913" class="ip" text-anchor="end">10.10.0.70</text>
<text x="110" y="958" class="specs">1 vCPU · 1 GB RAM</text>
<text x="110" y="978" class="meta">Kleine losse tools en 3D-print utilities</text>
<text x="110" y="1006" class="service">IT-Tools</text>
<text x="110" y="1024" class="service">Omni-Tools</text>
<text x="110" y="1042" class="serviceMuted">Spoolman</text>
<text x="110" y="1060" class="serviceMuted">Printer Calculator</text>
</g><g>
<rect x="626" y="880" width="504" height="212" rx="22" fill="url(#panel)" stroke="#94a3b8" stroke-width="2.0" filter="url(#shadow)"/>
<path d="M 648 880 H 1108 Q 1130 880 1130 902 V 934 H 626 V 902 Q 626 880 648 880 Z" fill="#334155" stroke="#94a3b8" stroke-width="0"/>
<text x="648" y="913" class="title2">LXC 108 · openclaw</text>
<text x="1108" y="913" class="ip" text-anchor="end">10.10.0.80</text>
<text x="648" y="958" class="specs">4 vCPU · 4 GB RAM</text>
<text x="648" y="978" class="meta">Simple representation only</text>
<text x="648" y="1006" class="service">OpenClaw</text>
</g><g>
<rect x="1164" y="880" width="504" height="212" rx="22" fill="url(#panel)" stroke="#94a3b8" stroke-width="2.0" filter="url(#shadow)"/>
<path d="M 1186 880 H 1646 Q 1668 880 1668 902 V 934 H 1164 V 902 Q 1164 880 1186 880 Z" fill="#334155" stroke="#94a3b8" stroke-width="0"/>
<text x="1186" y="913" class="title2">LXC 109 · money</text>
<text x="1646" y="913" class="ip" text-anchor="end">10.10.0.90</text>
<text x="1186" y="958" class="specs">2 vCPU · 2 GB RAM</text>
<text x="1186" y="978" class="meta">Simple representation only</text>
<text x="1186" y="1006" class="service">Money</text>
</g></svg>
