<svg xmlns="http://www.w3.org/2000/svg" width="1760" height="1210" viewBox="0 0 1760 1210" role="img" aria-labelledby="title desc">
  <title id="title">Meelsnet Server · Homelab Architecture</title>
  <desc id="desc">Actuele Proxmox/LXC-indeling met compacte stacksamenvatting per container.</desc>
  <defs>
    <linearGradient id="bg" x1="0" y1="0" x2="1" y2="1">
      <stop offset="0%" stop-color="#0b1220"/>
      <stop offset="100%" stop-color="#111827"/>
    </linearGradient>
    <linearGradient id="panel" x1="0" y1="0" x2="0" y2="1">
      <stop offset="0%" stop-color="#182236"/>
      <stop offset="100%" stop-color="#121a2b"/>
    </linearGradient>
    <filter id="shadow" x="-20%" y="-20%" width="140%" height="140%">
      <feDropShadow dx="0" dy="12" stdDeviation="16" flood-color="#020617" flood-opacity="0.34"/>
    </filter>
    <style>
      .title1 { font: 700 40px Inter,Segoe UI,Arial,sans-serif; fill: #f8fafc; }
      .subtitle1 { font: 400 18px Inter,Segoe UI,Arial,sans-serif; fill: #94a3b8; }
      .title2 { font: 700 18px Inter,Segoe UI,Arial,sans-serif; fill: #f8fafc; }
      .meta { font: 400 14px Inter,Segoe UI,Arial,sans-serif; fill: #a8b3c7; }
      .ip { font: 700 14px Inter,Segoe UI,Arial,sans-serif; fill: #dbe4ee; }
      .svc { font: 600 13px Inter,Segoe UI,Arial,sans-serif; fill: #e2e8f0; }
      .bullet { font: 700 13px Inter,Segoe UI,Arial,sans-serif; fill: #cbd5e1; }
      .legendTitle { font: 700 16px Inter,Segoe UI,Arial,sans-serif; fill: #f8fafc; }
      .legendText { font: 600 13px Inter,Segoe UI,Arial,sans-serif; fill: #e2e8f0; }
      .footer { font: 500 12px Inter,Segoe UI,Arial,sans-serif; fill: #94a3b8; }
    </style>
  </defs>
  <rect width="1760" height="1210" fill="url(#bg)"/>
  <text x="56" y="64" class="title1">Meelsnet Server · Homelab Architecture</text>
  <text x="56" y="96" class="subtitle1">Actuele Proxmox/LXC-indeling met compacte stacksamenvatting per container.</text>
  <rect x="36" y="126" width="1688" height="1040" rx="32" fill="rgba(15,23,42,0.58)" stroke="#334155" stroke-width="2.2" filter="url(#shadow)"/>

<rect x="56" y="144" width="250" height="42" rx="14" fill="#111827" stroke="#94a3b8" stroke-width="1.8"/>
<text x="72" y="170" class="meta">Proxmox host · srv-mn</text>
<rect x="324" y="144" width="280" height="42" rx="14" fill="#111827" stroke="#60a5fa" stroke-width="1.8"/>
<text x="340" y="170" class="meta">vmbr0 · LAN · 192.168.2.0/24</text>
<rect x="622" y="144" width="300" height="42" rx="14" fill="#111827" stroke="#c084fc" stroke-width="1.8"/>
<text x="638" y="170" class="meta">vmbr1 · Service net · 10.10.0.0/24</text>
<rect x="1180" y="144" width="512" height="124" rx="20" fill="#0f172a" stroke="#334155" stroke-width="1.8"/>
<text x="1198" y="172" class="legendTitle">Legend</text>
<rect x="1198" y="194" width="14" height="14" rx="4" fill="#0f3d2e" stroke="#34d399"/>
<text x="1222" y="206" class="legendText">Core infrastructure</text>
<rect x="1440" y="194" width="14" height="14" rx="4" fill="#4c1384" stroke="#c084fc"/>
<text x="1464" y="206" class="legendText">Media stack</text>
<rect x="1198" y="222" width="14" height="14" rx="4" fill="#6a3415" stroke="#fb923c"/>
<text x="1222" y="234" class="legendText">Home automation</text>
<rect x="1440" y="222" width="14" height="14" rx="4" fill="#22356f" stroke="#60a5fa"/>
<text x="1464" y="234" class="legendText">Feature/application stacks</text>
<rect x="1198" y="250" width="14" height="14" rx="4" fill="#155e86" stroke="#38bdf8"/>
<text x="1222" y="262" class="legendText">Monitoring / observability</text>
<rect x="1440" y="250" width="14" height="14" rx="4" fill="#334155" stroke="#94a3b8"/>
<text x="1464" y="262" class="legendText">Simple / supporting stacks</text>
<g>
<rect x="88" y="320" width="504" height="244" rx="28" fill="url(#panel)" stroke="#34d399" stroke-width="2.4" filter="url(#shadow)"/>
<path d="M 116 320 H 564 Q 592 320 592 348 V 378 H 88 V 348 Q 88 320 116 320 Z" fill="#0f3d2e"/>
<text x="114" y="354" class="title2">LXC 101 · infra</text>
<text x="566" y="354" class="ip" text-anchor="end">10.10.0.10</text>
<text x="114" y="406" class="meta">Ingress, auth en shared datastores</text>
<line x1="334" y1="426" x2="334" y2="538" stroke="#334155" stroke-width="1" opacity="0.9"/>
<text x="116" y="446" class="bullet">•</text>
<text x="132" y="446" class="svc">Traefik</text>
<text x="116" y="472" class="bullet">•</text>
<text x="132" y="472" class="svc">Worker</text>
<text x="116" y="498" class="bullet">•</text>
<text x="132" y="498" class="svc">Redis</text>
<text x="116" y="524" class="bullet">•</text>
<text x="132" y="524" class="svc">Adminer</text>
<text x="354" y="446" class="bullet">•</text>
<text x="370" y="446" class="svc">Authentik</text>
<text x="354" y="472" class="bullet">•</text>
<text x="370" y="472" class="svc">Postgres</text>
<text x="354" y="498" class="bullet">•</text>
<text x="370" y="498" class="svc">MongoDB</text>
<text x="354" y="524" class="bullet">•</text>
<text x="370" y="524" class="svc">Mongo Express</text>
</g>
<g>
<rect x="626" y="320" width="504" height="244" rx="28" fill="url(#panel)" stroke="#c084fc" stroke-width="2.4" filter="url(#shadow)"/>
<path d="M 654 320 H 1102 Q 1130 320 1130 348 V 378 H 626 V 348 Q 626 320 654 320 Z" fill="#4c1384"/>
<text x="652" y="354" class="title2">LXC 102 · media</text>
<text x="1104" y="354" class="ip" text-anchor="end">10.10.0.20</text>
<text x="652" y="406" class="meta">Streaming, downloads en Arr-ecosysteem</text>
<line x1="872" y1="426" x2="872" y2="538" stroke="#334155" stroke-width="1" opacity="0.9"/>
<text x="654" y="446" class="bullet">•</text>
<text x="670" y="446" class="svc">Plex</text>
<text x="654" y="472" class="bullet">•</text>
<text x="670" y="472" class="svc">Seerr</text>
<text x="654" y="498" class="bullet">•</text>
<text x="670" y="498" class="svc">Radarr</text>
<text x="654" y="524" class="bullet">•</text>
<text x="670" y="524" class="svc">Bazarr</text>
<text x="892" y="446" class="bullet">•</text>
<text x="908" y="446" class="svc">Jellyfin</text>
<text x="892" y="472" class="bullet">•</text>
<text x="908" y="472" class="svc">Sonarr</text>
<text x="892" y="498" class="bullet">•</text>
<text x="908" y="498" class="svc">Prowlarr</text>
<text x="892" y="524" class="bullet">•</text>
<text x="908" y="524" class="svc">Tautulli</text>
<text x="652" y="546" class="footer">+ Notifiarr · Profilarr · Tracearr · Agregarr · Watchstate</text>
</g>
<g>
<rect x="1164" y="320" width="504" height="244" rx="28" fill="url(#panel)" stroke="#fb923c" stroke-width="2.4" filter="url(#shadow)"/>
<path d="M 1192 320 H 1640 Q 1668 320 1668 348 V 378 H 1164 V 348 Q 1164 320 1192 320 Z" fill="#6a3415"/>
<text x="1190" y="354" class="title2">LXC 103 · home</text>
<text x="1642" y="354" class="ip" text-anchor="end">10.10.0.30</text>
<text x="1190" y="406" class="meta">Domotica, MQTT en local automation</text>
<line x1="1410" y1="426" x2="1410" y2="538" stroke="#334155" stroke-width="1" opacity="0.9"/>
<text x="1192" y="446" class="bullet">•</text>
<text x="1208" y="446" class="svc">Home Assistant</text>
<text x="1192" y="472" class="bullet">•</text>
<text x="1208" y="472" class="svc">Zigbee2MQTT</text>
<text x="1192" y="498" class="bullet">•</text>
<text x="1208" y="498" class="svc">Music Assistant</text>
<text x="1192" y="524" class="bullet">•</text>
<text x="1208" y="524" class="svc">Frigate</text>
<text x="1430" y="446" class="bullet">•</text>
<text x="1446" y="446" class="svc">Mosquitto</text>
<text x="1430" y="472" class="bullet">•</text>
<text x="1446" y="472" class="svc">Node-RED</text>
<text x="1430" y="498" class="bullet">•</text>
<text x="1446" y="498" class="svc">Hyperion</text>
</g>
<g>
<rect x="88" y="598" width="504" height="244" rx="28" fill="url(#panel)" stroke="#60a5fa" stroke-width="2.4" filter="url(#shadow)"/>
<path d="M 116 598 H 564 Q 592 598 592 626 V 656 H 88 V 626 Q 88 598 116 598 Z" fill="#22356f"/>
<text x="114" y="632" class="title2">LXC 104 · productivity</text>
<text x="566" y="632" class="ip" text-anchor="end">10.10.0.40</text>
<text x="114" y="684" class="meta">Persoonlijke apps, documents, storage en finance</text>
<line x1="334" y1="704" x2="334" y2="816" stroke="#334155" stroke-width="1" opacity="0.9"/>
<text x="116" y="724" class="bullet">•</text>
<text x="132" y="724" class="svc">Immich</text>
<text x="116" y="750" class="bullet">•</text>
<text x="132" y="750" class="svc">Nextcloud</text>
<text x="116" y="776" class="bullet">•</text>
<text x="132" y="776" class="svc">Firefly III</text>
<text x="354" y="724" class="bullet">•</text>
<text x="370" y="724" class="svc">Paperless</text>
<text x="354" y="750" class="bullet">•</text>
<text x="370" y="750" class="svc">Backrest</text>
</g>
<g>
<rect x="626" y="598" width="504" height="244" rx="28" fill="url(#panel)" stroke="#60a5fa" stroke-width="2.4" filter="url(#shadow)"/>
<path d="M 654 598 H 1102 Q 1130 598 1130 626 V 656 H 626 V 626 Q 626 598 654 598 Z" fill="#22356f"/>
<text x="652" y="632" class="title2">LXC 105 · network</text>
<text x="1104" y="632" class="ip" text-anchor="end">10.10.0.50</text>
<text x="652" y="684" class="meta">DNS en netwerkbeheer</text>
<line x1="872" y1="704" x2="872" y2="816" stroke="#334155" stroke-width="1" opacity="0.9"/>
<text x="654" y="724" class="bullet">•</text>
<text x="670" y="724" class="svc">Pi-hole</text>
<text x="892" y="724" class="bullet">•</text>
<text x="908" y="724" class="svc">UniFi Network Application</text>
</g>
<g>
<rect x="1164" y="598" width="504" height="244" rx="28" fill="url(#panel)" stroke="#38bdf8" stroke-width="2.4" filter="url(#shadow)"/>
<path d="M 1192 598 H 1640 Q 1668 598 1668 626 V 656 H 1164 V 626 Q 1164 598 1192 598 Z" fill="#155e86"/>
<text x="1190" y="632" class="title2">LXC 106 · monitoring</text>
<text x="1642" y="632" class="ip" text-anchor="end">10.10.0.60</text>
<text x="1190" y="684" class="meta">Metrics, dashboards, alerts en exporters</text>
<line x1="1410" y1="704" x2="1410" y2="816" stroke="#334155" stroke-width="1" opacity="0.9"/>
<text x="1192" y="724" class="bullet">•</text>
<text x="1208" y="724" class="svc">Prometheus</text>
<text x="1192" y="750" class="bullet">•</text>
<text x="1208" y="750" class="svc">Alertmanager</text>
<text x="1192" y="776" class="bullet">•</text>
<text x="1208" y="776" class="svc">Node Exporter</text>
<text x="1192" y="802" class="bullet">•</text>
<text x="1208" y="802" class="svc">Mosquitto Exporter</text>
<text x="1430" y="724" class="bullet">•</text>
<text x="1446" y="724" class="svc">Grafana</text>
<text x="1430" y="750" class="bullet">•</text>
<text x="1446" y="750" class="svc">cAdvisor</text>
<text x="1430" y="776" class="bullet">•</text>
<text x="1446" y="776" class="svc">Smartctl Exporter</text>
<text x="1430" y="802" class="bullet">•</text>
<text x="1446" y="802" class="svc">Arr Exporters</text>
</g>
<g>
<rect x="88" y="876" width="504" height="244" rx="28" fill="url(#panel)" stroke="#a1a1aa" stroke-width="2.4" filter="url(#shadow)"/>
<path d="M 116 876 H 564 Q 592 876 592 904 V 934 H 88 V 904 Q 88 876 116 876 Z" fill="#52525b"/>
<text x="114" y="910" class="title2">LXC 107 · utilities</text>
<text x="566" y="910" class="ip" text-anchor="end">10.10.0.70</text>
<text x="114" y="962" class="meta">Kleine losse tools en 3D-print utilities</text>
<line x1="334" y1="982" x2="334" y2="1094" stroke="#334155" stroke-width="1" opacity="0.9"/>
<text x="116" y="1002" class="bullet">•</text>
<text x="132" y="1002" class="svc">IT-Tools</text>
<text x="116" y="1028" class="bullet">•</text>
<text x="132" y="1028" class="svc">Spoolman</text>
<text x="354" y="1002" class="bullet">•</text>
<text x="370" y="1002" class="svc">Omni-Tools</text>
<text x="354" y="1028" class="bullet">•</text>
<text x="370" y="1028" class="svc">Printer Calculator</text>
</g>
<g>
<rect x="626" y="876" width="504" height="244" rx="28" fill="url(#panel)" stroke="#94a3b8" stroke-width="2.4" filter="url(#shadow)"/>
<path d="M 654 876 H 1102 Q 1130 876 1130 904 V 934 H 626 V 904 Q 626 876 654 876 Z" fill="#334155"/>
<text x="652" y="910" class="title2">LXC 108 · openclaw</text>
<text x="1104" y="910" class="ip" text-anchor="end">10.10.0.80</text>
<text x="652" y="962" class="meta">Simple representation only</text>
<line x1="872" y1="982" x2="872" y2="1094" stroke="#334155" stroke-width="1" opacity="0.9"/>
<text x="654" y="1002" class="bullet">•</text>
<text x="670" y="1002" class="svc">OpenClaw / Lyra</text>
</g>
<g>
<rect x="1164" y="876" width="504" height="244" rx="28" fill="url(#panel)" stroke="#94a3b8" stroke-width="2.4" filter="url(#shadow)"/>
<path d="M 1192 876 H 1640 Q 1668 876 1668 904 V 934 H 1164 V 904 Q 1164 876 1192 876 Z" fill="#334155"/>
<text x="1190" y="910" class="title2">LXC 109 · money</text>
<text x="1642" y="910" class="ip" text-anchor="end">10.10.0.90</text>
<text x="1190" y="962" class="meta">Simple representation only</text>
<line x1="1410" y1="982" x2="1410" y2="1094" stroke="#334155" stroke-width="1" opacity="0.9"/>
<text x="1192" y="1002" class="bullet">•</text>
<text x="1208" y="1002" class="svc">Money</text>
</g>
</svg>
