<svg xmlns="http://www.w3.org/2000/svg" width="1760" height="1208" viewBox="0 0 1760 1208" role="img" aria-labelledby="title desc">
  <title id="title">Meelsnet Server · Homelab Architecture</title>
  <desc id="desc">Actuele Proxmox/LXC-indeling met compacte stacksamenvatting per container.</desc>
  <defs>
    <linearGradient id="bg" x1="0" y1="0" x2="1" y2="1">
      <stop offset="0%" stop-color="#0b1220"/>
      <stop offset="100%" stop-color="#111827"/>
    </linearGradient>
    <linearGradient id="panel" x1="0" y1="0" x2="0" y2="1">
      <stop offset="0%" stop-color="#182236"/>
      <stop offset="100%" stop-color="#121a2b"/>
    </linearGradient>
    <filter id="shadow" x="-20%" y="-20%" width="140%" height="140%">
      <feDropShadow dx="0" dy="10" stdDeviation="14" flood-color="#020617" flood-opacity="0.28"/>
    </filter>
    <style>
      .title1 { font: 700 40px Inter,Segoe UI,Arial,sans-serif; fill: #f8fafc; }
      .subtitle1 { font: 400 18px Inter,Segoe UI,Arial,sans-serif; fill: #94a3b8; }
      .title2 { font: 700 18px Inter,Segoe UI,Arial,sans-serif; fill: #f8fafc; }
      .meta { font: 400 14px Inter,Segoe UI,Arial,sans-serif; fill: #a8b3c7; }
      .specs { font: 600 12px Inter,Segoe UI,Arial,sans-serif; fill: #cbd5e1; }
      .ip { font: 700 14px Inter,Segoe UI,Arial,sans-serif; fill: #dbe4ee; }
      .service { font: 600 13px Inter,Segoe UI,Arial,sans-serif; fill: #e2e8f0; }
      .serviceMuted { font: 600 13px Inter,Segoe UI,Arial,sans-serif; fill: #cbd5e1; }
      .legendTitle { font: 700 16px Inter,Segoe UI,Arial,sans-serif; fill: #f8fafc; }
      .legendText { font: 600 13px Inter,Segoe UI,Arial,sans-serif; fill: #e2e8f0; }
      .hostTitle { font: 700 18px Inter,Segoe UI,Arial,sans-serif; fill: #f8fafc; }
      .hostMeta { font: 600 13px Inter,Segoe UI,Arial,sans-serif; fill: #dbe4ee; }
      .footer { font: 500 12px Inter,Segoe UI,Arial,sans-serif; fill: #94a3b8; }
    </style>
  </defs>
  <rect width="1760" height="1208" fill="url(#bg)"/>
  <text x="56" y="64" class="title1">Meelsnet Server · Homelab Architecture</text>
  <text x="56" y="96" class="subtitle1">Actuele Proxmox/LXC-indeling met compacte stacksamenvatting per container.</text>
  <rect x="36" y="126" width="1688" height="1046" rx="32" fill="rgba(15,23,42,0.58)" stroke="#334155" stroke-width="2.2" filter="url(#shadow)"/>

<rect x="56" y="144" width="250" height="42" rx="14" fill="#111827" stroke="#94a3b8" stroke-width="1.8"/>
<text x="72" y="170" class="meta">Proxmox host · srv-mn</text>
<rect x="324" y="144" width="280" height="42" rx="14" fill="#111827" stroke="#60a5fa" stroke-width="1.8"/>
<text x="340" y="170" class="meta">vmbr0 · LAN · 192.168.2.0/24</text>
<rect x="622" y="144" width="300" height="42" rx="14" fill="#111827" stroke="#c084fc" stroke-width="1.8"/>
<text x="638" y="170" class="meta">vmbr1 · Service net · 10.10.0.0/24</text>
<rect x="56" y="206" width="1080" height="126" rx="24" fill="#0f172a" stroke="#334155" stroke-width="1.8"/>
<text x="78" y="238" class="hostTitle">Host summary · srv-mn</text>
<text x="78" y="264" class="meta">Proxmox VE</text>
<rect x="78" y="282" width="190" height="32" rx="11" fill="#172033" stroke="#475569"/>
<text x="92" y="303" class="hostMeta">6 cores</text>
<rect x="302" y="282" width="190" height="32" rx="11" fill="#172033" stroke="#475569"/>
<text x="316" y="303" class="hostMeta">32 GiB RAM</text>
<rect x="526" y="282" width="190" height="32" rx="11" fill="#172033" stroke="#475569"/>
<text x="540" y="303" class="hostMeta">2 TB NVMe</text>
<rect x="750" y="282" width="360" height="32" rx="11" fill="#172033" stroke="#475569"/>
<text x="764" y="303" class="hostMeta">5× 20 TB HDD · RAID5 · 80 TB</text>
<rect x="1164" y="206" width="528" height="126" rx="24" fill="#0f172a" stroke="#334155" stroke-width="1.8"/>
<text x="1182" y="238" class="legendTitle">Legend</text>
<rect x="1182" y="256" width="14" height="14" rx="4" fill="#0f3d2e" stroke="#34d399"/>
<text x="1206" y="268" class="legendText">Core infrastructure</text>
<rect x="1430" y="256" width="14" height="14" rx="4" fill="#4c1384" stroke="#c084fc"/>
<text x="1454" y="268" class="legendText">Media stack</text>
<rect x="1182" y="280" width="14" height="14" rx="4" fill="#6a3415" stroke="#fb923c"/>
<text x="1206" y="292" class="legendText">Home automation</text>
<rect x="1430" y="280" width="14" height="14" rx="4" fill="#22356f" stroke="#60a5fa"/>
<text x="1454" y="292" class="legendText">Feature/application stacks</text>
<rect x="1182" y="304" width="14" height="14" rx="4" fill="#155e86" stroke="#38bdf8"/>
<text x="1206" y="316" class="legendText">Monitoring / observability</text>
<rect x="1430" y="304" width="14" height="14" rx="4" fill="#334155" stroke="#94a3b8"/>
<text x="1454" y="316" class="legendText">Simple / supporting stacks</text>
<g>
<rect x="88" y="430" width="504" height="212" rx="22" fill="url(#panel)" stroke="#34d399" stroke-width="2.0" filter="url(#shadow)"/>
<rect x="88" y="430" width="504" height="54" rx="22" fill="#0f3d2e"/>
<rect x="88" y="468" width="504" height="16" fill="#0f3d2e"/>
<text x="110" y="463" class="title2">LXC 101 · infra</text>
<text x="570" y="463" class="ip" text-anchor="end">10.10.0.10</text>
<text x="110" y="508" class="specs">2 vCPU · 4 GB RAM</text>
<text x="110" y="528" class="meta">Ingress, auth en shared datastores</text>
<text x="110" y="556" class="service">Traefik</text>
<text x="110" y="574" class="service">Authentik</text>
<text x="110" y="592" class="serviceMuted">Worker</text>
<text x="110" y="610" class="serviceMuted">Postgres</text>
<text x="362" y="556" class="service">Redis</text>
<text x="362" y="574" class="service">MongoDB</text>
<text x="362" y="592" class="serviceMuted">Adminer</text>
<text x="362" y="610" class="serviceMuted">Mongo Express</text>
</g>
<g>
<rect x="626" y="430" width="504" height="212" rx="22" fill="url(#panel)" stroke="#c084fc" stroke-width="2.0" filter="url(#shadow)"/>
<rect x="626" y="430" width="504" height="54" rx="22" fill="#4c1384"/>
<rect x="626" y="468" width="504" height="16" fill="#4c1384"/>
<text x="648" y="463" class="title2">LXC 102 · media</text>
<text x="1108" y="463" class="ip" text-anchor="end">10.10.0.20</text>
<text x="648" y="508" class="specs">6 vCPU · 10 GB RAM</text>
<text x="648" y="528" class="meta">Streaming</text>
<text x="648" y="556" class="service">Plex</text>
<text x="648" y="574" class="service">Jellyfin</text>
<text x="648" y="592" class="serviceMuted">Notifiarr</text>
<text x="648" y="610" class="serviceMuted">Tracearr</text>
<text x="900" y="556" class="service">Agregarr</text>
<text x="900" y="574" class="service">Watchstate</text>
<text x="900" y="592" class="serviceMuted">Bazarr</text>
<text x="900" y="610" class="serviceMuted">Tautulli</text>
<text x="648" y="624" class="footer">+ 7 more</text>
</g>
<g>
<rect x="1164" y="430" width="504" height="212" rx="22" fill="url(#panel)" stroke="#fb923c" stroke-width="2.0" filter="url(#shadow)"/>
<rect x="1164" y="430" width="504" height="54" rx="22" fill="#6a3415"/>
<rect x="1164" y="468" width="504" height="16" fill="#6a3415"/>
<text x="1186" y="463" class="title2">LXC 103 · home</text>
<text x="1646" y="463" class="ip" text-anchor="end">10.10.0.30</text>
<text x="1186" y="508" class="specs">2 vCPU · 4 GB RAM</text>
<text x="1186" y="528" class="meta">Domotica, MQTT en local automation</text>
<text x="1186" y="556" class="service">Home Assistant</text>
<text x="1186" y="574" class="service">Mosquitto</text>
<text x="1186" y="592" class="serviceMuted">Zigbee2MQTT</text>
<text x="1186" y="610" class="serviceMuted">Node-RED</text>
<text x="1438" y="556" class="service">Music Assistant</text>
<text x="1438" y="574" class="service">Hyperion</text>
<text x="1438" y="592" class="serviceMuted">Frigate</text>
</g>
<g>
<rect x="88" y="672" width="504" height="212" rx="22" fill="url(#panel)" stroke="#60a5fa" stroke-width="2.0" filter="url(#shadow)"/>
<rect x="88" y="672" width="504" height="54" rx="22" fill="#22356f"/>
<rect x="88" y="710" width="504" height="16" fill="#22356f"/>
<text x="110" y="705" class="title2">LXC 104 · productivity</text>
<text x="570" y="705" class="ip" text-anchor="end">10.10.0.40</text>
<text x="110" y="750" class="specs">2 vCPU · 2 GB RAM</text>
<text x="110" y="770" class="meta">Persoonlijke apps, documents, storage en finance</text>
<text x="110" y="798" class="service">Immich</text>
<text x="110" y="816" class="service">Paperless</text>
<text x="110" y="834" class="serviceMuted">Nextcloud</text>
<text x="110" y="852" class="serviceMuted">Backrest</text>
<text x="362" y="798" class="service">Firefly III</text>
</g>
<g>
<rect x="626" y="672" width="504" height="212" rx="22" fill="url(#panel)" stroke="#60a5fa" stroke-width="2.0" filter="url(#shadow)"/>
<rect x="626" y="672" width="504" height="54" rx="22" fill="#22356f"/>
<rect x="626" y="710" width="504" height="16" fill="#22356f"/>
<text x="648" y="705" class="title2">LXC 105 · network</text>
<text x="1108" y="705" class="ip" text-anchor="end">10.10.0.50</text>
<text x="648" y="750" class="specs">1 vCPU · 2 GB RAM</text>
<text x="648" y="770" class="meta">DNS en netwerkbeheer</text>
<text x="648" y="798" class="service">Pi-hole</text>
<text x="648" y="816" class="service">UniFi Network Applicati…</text>
</g>
<g>
<rect x="1164" y="672" width="504" height="212" rx="22" fill="url(#panel)" stroke="#38bdf8" stroke-width="2.0" filter="url(#shadow)"/>
<rect x="1164" y="672" width="504" height="54" rx="22" fill="#155e86"/>
<rect x="1164" y="710" width="504" height="16" fill="#155e86"/>
<text x="1186" y="705" class="title2">LXC 106 · monitoring</text>
<text x="1646" y="705" class="ip" text-anchor="end">10.10.0.60</text>
<text x="1186" y="750" class="specs">2 vCPU · 3 GB RAM</text>
<text x="1186" y="770" class="meta">Metrics, dashboards, alerts en exporters</text>
<text x="1186" y="798" class="service">Prometheus</text>
<text x="1186" y="816" class="service">Grafana</text>
<text x="1186" y="834" class="serviceMuted">Alertmanager</text>
<text x="1186" y="852" class="serviceMuted">cAdvisor</text>
<text x="1438" y="798" class="service">Node Exporter</text>
<text x="1438" y="816" class="service">Smartctl Exporter</text>
<text x="1438" y="834" class="serviceMuted">Mosquitto Exporter</text>
</g>
<g>
<rect x="88" y="914" width="504" height="212" rx="22" fill="url(#panel)" stroke="#a1a1aa" stroke-width="2.0" filter="url(#shadow)"/>
<rect x="88" y="914" width="504" height="54" rx="22" fill="#52525b"/>
<rect x="88" y="952" width="504" height="16" fill="#52525b"/>
<text x="110" y="947" class="title2">LXC 107 · utilities</text>
<text x="570" y="947" class="ip" text-anchor="end">10.10.0.70</text>
<text x="110" y="992" class="specs">1 vCPU · 1 GB RAM</text>
<text x="110" y="1012" class="meta">Kleine losse tools en 3D-print utilities</text>
<text x="110" y="1040" class="service">IT-Tools</text>
<text x="110" y="1058" class="service">Omni-Tools</text>
<text x="110" y="1076" class="serviceMuted">Spoolman</text>
<text x="110" y="1094" class="serviceMuted">Printer Calculator</text>
</g>
<g>
<rect x="626" y="914" width="504" height="212" rx="22" fill="url(#panel)" stroke="#94a3b8" stroke-width="2.0" filter="url(#shadow)"/>
<rect x="626" y="914" width="504" height="54" rx="22" fill="#334155"/>
<rect x="626" y="952" width="504" height="16" fill="#334155"/>
<text x="648" y="947" class="title2">LXC 108 · openclaw</text>
<text x="1108" y="947" class="ip" text-anchor="end">10.10.0.80</text>
<text x="648" y="992" class="specs">4 vCPU · 4 GB RAM</text>
<text x="648" y="1012" class="meta">Simple representation only</text>
<text x="648" y="1040" class="service">OpenClaw</text>
</g>
<g>
<rect x="1164" y="914" width="504" height="212" rx="22" fill="url(#panel)" stroke="#94a3b8" stroke-width="2.0" filter="url(#shadow)"/>
<rect x="1164" y="914" width="504" height="54" rx="22" fill="#334155"/>
<rect x="1164" y="952" width="504" height="16" fill="#334155"/>
<text x="1186" y="947" class="title2">LXC 109 · money</text>
<text x="1646" y="947" class="ip" text-anchor="end">10.10.0.90</text>
<text x="1186" y="992" class="specs">2 vCPU · 2 GB RAM</text>
<text x="1186" y="1012" class="meta">Simple representation only</text>
<text x="1186" y="1040" class="service">Money</text>
</g>
</svg>
