<svg xmlns="http://www.w3.org/2000/svg" width="1760" height="1236" viewBox="0 0 1760 1236" role="img" aria-labelledby="title desc">
  <title id="title">Meelsnet Server · Homelab Architecture</title>
  <desc id="desc">Actuele Proxmox/LXC-indeling met compacte stacksamenvatting per container.</desc>
  <defs>
    <linearGradient id="bg" x1="0" y1="0" x2="1" y2="1">
      <stop offset="0%" stop-color="#0b1220"/>
      <stop offset="100%" stop-color="#111827"/>
    </linearGradient>
    <linearGradient id="panel" x1="0" y1="0" x2="0" y2="1">
      <stop offset="0%" stop-color="#182236"/>
      <stop offset="100%" stop-color="#121a2b"/>
    </linearGradient>
    <filter id="shadow" x="-20%" y="-20%" width="140%" height="140%">
      <feDropShadow dx="0" dy="12" stdDeviation="16" flood-color="#020617" flood-opacity="0.34"/>
    </filter>
    <style>
      .title1 { font: 700 40px Inter,Segoe UI,Arial,sans-serif; fill: #f8fafc; }
      .subtitle1 { font: 400 18px Inter,Segoe UI,Arial,sans-serif; fill: #94a3b8; }
      .title2 { font: 700 18px Inter,Segoe UI,Arial,sans-serif; fill: #f8fafc; }
      .meta { font: 400 14px Inter,Segoe UI,Arial,sans-serif; fill: #a8b3c7; }
      .ip { font: 700 14px Inter,Segoe UI,Arial,sans-serif; fill: #dbe4ee; }
      .hero { font: 600 13px Inter,Segoe UI,Arial,sans-serif; fill: #f8fafc; }
      .svc { font: 600 13px Inter,Segoe UI,Arial,sans-serif; fill: #dbe4ee; }
      .bullet { font: 700 13px Inter,Segoe UI,Arial,sans-serif; fill: #cbd5e1; }
      .section { font: 700 12px Inter,Segoe UI,Arial,sans-serif; fill: #94a3b8; letter-spacing: 0.08em; text-transform: uppercase; }
      .legendTitle { font: 700 16px Inter,Segoe UI,Arial,sans-serif; fill: #f8fafc; }
      .legendText { font: 600 13px Inter,Segoe UI,Arial,sans-serif; fill: #e2e8f0; }
      .footer { font: 500 12px Inter,Segoe UI,Arial,sans-serif; fill: #94a3b8; }
    </style>
  </defs>
  <rect width="1760" height="1236" fill="url(#bg)"/>
  <text x="56" y="64" class="title1">Meelsnet Server · Homelab Architecture</text>
  <text x="56" y="96" class="subtitle1">Actuele Proxmox/LXC-indeling met compacte stacksamenvatting per container.</text>
  <rect x="36" y="126" width="1688" height="1074" rx="32" fill="rgba(15,23,42,0.58)" stroke="#334155" stroke-width="2.2" filter="url(#shadow)"/>

<rect x="56" y="144" width="250" height="42" rx="14" fill="#111827" stroke="#94a3b8" stroke-width="1.8"/>
<text x="72" y="170" class="meta">Proxmox host · srv-mn</text>
<rect x="324" y="144" width="280" height="42" rx="14" fill="#111827" stroke="#60a5fa" stroke-width="1.8"/>
<text x="340" y="170" class="meta">vmbr0 · LAN · 192.168.2.0/24</text>
<rect x="622" y="144" width="300" height="42" rx="14" fill="#111827" stroke="#c084fc" stroke-width="1.8"/>
<text x="638" y="170" class="meta">vmbr1 · Service net · 10.10.0.0/24</text>
<rect x="1180" y="144" width="512" height="124" rx="20" fill="#0f172a" stroke="#334155" stroke-width="1.8"/>
<text x="1198" y="172" class="legendTitle">Legend</text>
<rect x="1198" y="194" width="14" height="14" rx="4" fill="#0f3d2e" stroke="#34d399"/>
<text x="1222" y="206" class="legendText">Core infrastructure</text>
<rect x="1440" y="194" width="14" height="14" rx="4" fill="#4c1384" stroke="#c084fc"/>
<text x="1464" y="206" class="legendText">Media stack</text>
<rect x="1198" y="222" width="14" height="14" rx="4" fill="#6a3415" stroke="#fb923c"/>
<text x="1222" y="234" class="legendText">Home automation</text>
<rect x="1440" y="222" width="14" height="14" rx="4" fill="#22356f" stroke="#60a5fa"/>
<text x="1464" y="234" class="legendText">Feature/application stacks</text>
<rect x="1198" y="250" width="14" height="14" rx="4" fill="#155e86" stroke="#38bdf8"/>
<text x="1222" y="262" class="legendText">Monitoring / observability</text>
<rect x="1440" y="250" width="14" height="14" rx="4" fill="#334155" stroke="#94a3b8"/>
<text x="1464" y="262" class="legendText">Simple / supporting stacks</text>
<g>
<rect x="88" y="320" width="504" height="250" rx="28" fill="url(#panel)" stroke="#34d399" stroke-width="2.3" filter="url(#shadow)"/>
<path d="M 116 320 H 564 Q 592 320 592 348 V 378 H 88 V 348 Q 88 320 116 320 Z" fill="#0f3d2e"/>
<text x="114" y="354" class="title2">LXC 101 · infra</text>
<text x="566" y="354" class="ip" text-anchor="end">10.10.0.10</text>
<text x="114" y="406" class="meta">Ingress, auth en shared datastores</text>
<text x="114" y="434" class="section">Primary services</text>
<rect x="114" y="446" width="142" height="34" rx="11" fill="#123528" stroke="#34d399"/>
<text x="128" y="468" class="hero">Traefik</text>
<rect x="268" y="446" width="142" height="34" rx="11" fill="#123528" stroke="#34d399"/>
<text x="282" y="468" class="hero">Authentik</text>
<rect x="422" y="446" width="142" height="34" rx="11" fill="#123528" stroke="#34d399"/>
<text x="436" y="468" class="hero">Worker</text>
<text x="114" y="504" class="section">Supporting services</text>
<line x1="334" y1="514" x2="334" y2="546" stroke="#334155" stroke-width="1" opacity="0.9"/>
<text x="116" y="530" class="bullet">•</text>
<text x="132" y="530" class="svc">Postgres</text>
<text x="116" y="552" class="bullet">•</text>
<text x="132" y="552" class="svc">MongoDB</text>
<text x="354" y="530" class="bullet">•</text>
<text x="370" y="530" class="svc">Redis</text>
<text x="354" y="552" class="bullet">•</text>
<text x="370" y="552" class="svc">Adminer</text>
</g>
<g>
<rect x="626" y="320" width="504" height="250" rx="28" fill="url(#panel)" stroke="#c084fc" stroke-width="2.3" filter="url(#shadow)"/>
<path d="M 654 320 H 1102 Q 1130 320 1130 348 V 378 H 626 V 348 Q 626 320 654 320 Z" fill="#4c1384"/>
<text x="652" y="354" class="title2">LXC 102 · media</text>
<text x="1104" y="354" class="ip" text-anchor="end">10.10.0.20</text>
<text x="652" y="406" class="meta">Streaming</text>
<text x="652" y="434" class="section">Primary services</text>
<rect x="652" y="446" width="142" height="34" rx="11" fill="#34135f" stroke="#c084fc"/>
<text x="666" y="468" class="hero">Plex</text>
<rect x="806" y="446" width="142" height="34" rx="11" fill="#34135f" stroke="#c084fc"/>
<text x="820" y="468" class="hero">Jellyfin</text>
<rect x="960" y="446" width="142" height="34" rx="11" fill="#34135f" stroke="#c084fc"/>
<text x="974" y="468" class="hero">Notifiarr</text>
<text x="652" y="504" class="section">Supporting services</text>
<line x1="872" y1="514" x2="872" y2="546" stroke="#334155" stroke-width="1" opacity="0.9"/>
<text x="654" y="530" class="bullet">•</text>
<text x="670" y="530" class="svc">Tracearr</text>
<text x="654" y="552" class="bullet">•</text>
<text x="670" y="552" class="svc">Watchstate</text>
<text x="892" y="530" class="bullet">•</text>
<text x="908" y="530" class="svc">Agregarr</text>
<text x="892" y="552" class="bullet">•</text>
<text x="908" y="552" class="svc">Bazarr</text>
<text x="652" y="554" class="footer">+ 7 more</text>
</g>
<g>
<rect x="1164" y="320" width="504" height="250" rx="28" fill="url(#panel)" stroke="#fb923c" stroke-width="2.3" filter="url(#shadow)"/>
<path d="M 1192 320 H 1640 Q 1668 320 1668 348 V 378 H 1164 V 348 Q 1164 320 1192 320 Z" fill="#6a3415"/>
<text x="1190" y="354" class="title2">LXC 103 · home</text>
<text x="1642" y="354" class="ip" text-anchor="end">10.10.0.30</text>
<text x="1190" y="406" class="meta">Domotica, MQTT en local automation</text>
<text x="1190" y="434" class="section">Primary services</text>
<rect x="1190" y="446" width="142" height="34" rx="11" fill="#4c2410" stroke="#fb923c"/>
<text x="1204" y="468" class="hero">Home Assistant</text>
<rect x="1344" y="446" width="142" height="34" rx="11" fill="#4c2410" stroke="#fb923c"/>
<text x="1358" y="468" class="hero">Mosquitto</text>
<rect x="1498" y="446" width="142" height="34" rx="11" fill="#4c2410" stroke="#fb923c"/>
<text x="1512" y="468" class="hero">Zigbee2MQTT</text>
<text x="1190" y="504" class="section">Supporting services</text>
<line x1="1410" y1="514" x2="1410" y2="546" stroke="#334155" stroke-width="1" opacity="0.9"/>
<text x="1192" y="530" class="bullet">•</text>
<text x="1208" y="530" class="svc">Node-RED</text>
<text x="1192" y="552" class="bullet">•</text>
<text x="1208" y="552" class="svc">Hyperion</text>
<text x="1430" y="530" class="bullet">•</text>
<text x="1446" y="530" class="svc">Music Assistant</text>
<text x="1430" y="552" class="bullet">•</text>
<text x="1446" y="552" class="svc">Frigate</text>
</g>
<g>
<rect x="88" y="604" width="504" height="250" rx="28" fill="url(#panel)" stroke="#60a5fa" stroke-width="2.3" filter="url(#shadow)"/>
<path d="M 116 604 H 564 Q 592 604 592 632 V 662 H 88 V 632 Q 88 604 116 604 Z" fill="#22356f"/>
<text x="114" y="638" class="title2">LXC 104 · productivity</text>
<text x="566" y="638" class="ip" text-anchor="end">10.10.0.40</text>
<text x="114" y="690" class="meta">Persoonlijke apps, documents, storage en finance</text>
<text x="114" y="718" class="section">Primary services</text>
<rect x="114" y="730" width="142" height="34" rx="11" fill="#1b2c59" stroke="#60a5fa"/>
<text x="128" y="752" class="hero">Immich</text>
<rect x="268" y="730" width="142" height="34" rx="11" fill="#1b2c59" stroke="#60a5fa"/>
<text x="282" y="752" class="hero">Paperless</text>
<rect x="422" y="730" width="142" height="34" rx="11" fill="#1b2c59" stroke="#60a5fa"/>
<text x="436" y="752" class="hero">Nextcloud</text>
<text x="114" y="788" class="section">Supporting services</text>
<line x1="334" y1="798" x2="334" y2="830" stroke="#334155" stroke-width="1" opacity="0.9"/>
<text x="116" y="814" class="bullet">•</text>
<text x="132" y="814" class="svc">Backrest</text>
<text x="354" y="814" class="bullet">•</text>
<text x="370" y="814" class="svc">Firefly III</text>
</g>
<g>
<rect x="626" y="604" width="504" height="250" rx="28" fill="url(#panel)" stroke="#60a5fa" stroke-width="2.3" filter="url(#shadow)"/>
<path d="M 654 604 H 1102 Q 1130 604 1130 632 V 662 H 626 V 632 Q 626 604 654 604 Z" fill="#22356f"/>
<text x="652" y="638" class="title2">LXC 105 · network</text>
<text x="1104" y="638" class="ip" text-anchor="end">10.10.0.50</text>
<text x="652" y="690" class="meta">DNS en netwerkbeheer</text>
<text x="652" y="718" class="section">Primary services</text>
<rect x="652" y="730" width="142" height="34" rx="11" fill="#1b2c59" stroke="#60a5fa"/>
<text x="666" y="752" class="hero">Pi-hole</text>
<rect x="806" y="730" width="142" height="34" rx="11" fill="#1b2c59" stroke="#60a5fa"/>
<text x="820" y="752" class="hero">UniFi Network A…</text>
<text x="652" y="788" class="section">Supporting services</text>
<line x1="872" y1="798" x2="872" y2="830" stroke="#334155" stroke-width="1" opacity="0.9"/>
</g>
<g>
<rect x="1164" y="604" width="504" height="250" rx="28" fill="url(#panel)" stroke="#38bdf8" stroke-width="2.3" filter="url(#shadow)"/>
<path d="M 1192 604 H 1640 Q 1668 604 1668 632 V 662 H 1164 V 632 Q 1164 604 1192 604 Z" fill="#155e86"/>
<text x="1190" y="638" class="title2">LXC 106 · monitoring</text>
<text x="1642" y="638" class="ip" text-anchor="end">10.10.0.60</text>
<text x="1190" y="690" class="meta">Metrics, dashboards, alerts en exporters</text>
<text x="1190" y="718" class="section">Primary services</text>
<rect x="1190" y="730" width="142" height="34" rx="11" fill="#124868" stroke="#38bdf8"/>
<text x="1204" y="752" class="hero">Prometheus</text>
<rect x="1344" y="730" width="142" height="34" rx="11" fill="#124868" stroke="#38bdf8"/>
<text x="1358" y="752" class="hero">Grafana</text>
<rect x="1498" y="730" width="142" height="34" rx="11" fill="#124868" stroke="#38bdf8"/>
<text x="1512" y="752" class="hero">Alertmanager</text>
<text x="1190" y="788" class="section">Supporting services</text>
<line x1="1410" y1="798" x2="1410" y2="830" stroke="#334155" stroke-width="1" opacity="0.9"/>
<text x="1192" y="814" class="bullet">•</text>
<text x="1208" y="814" class="svc">cAdvisor</text>
<text x="1192" y="836" class="bullet">•</text>
<text x="1208" y="836" class="svc">Smartctl Exporter</text>
<text x="1430" y="814" class="bullet">•</text>
<text x="1446" y="814" class="svc">Node Exporter</text>
<text x="1430" y="836" class="bullet">•</text>
<text x="1446" y="836" class="svc">Mosquitto Exporter</text>
</g>
<g>
<rect x="88" y="888" width="504" height="250" rx="28" fill="url(#panel)" stroke="#a1a1aa" stroke-width="2.3" filter="url(#shadow)"/>
<path d="M 116 888 H 564 Q 592 888 592 916 V 946 H 88 V 916 Q 88 888 116 888 Z" fill="#52525b"/>
<text x="114" y="922" class="title2">LXC 107 · utilities</text>
<text x="566" y="922" class="ip" text-anchor="end">10.10.0.70</text>
<text x="114" y="974" class="meta">Kleine losse tools en 3D-print utilities</text>
<text x="114" y="1002" class="section">Primary services</text>
<rect x="114" y="1014" width="142" height="34" rx="11" fill="#3f3f46" stroke="#a1a1aa"/>
<text x="128" y="1036" class="hero">IT-Tools</text>
<rect x="268" y="1014" width="142" height="34" rx="11" fill="#3f3f46" stroke="#a1a1aa"/>
<text x="282" y="1036" class="hero">Omni-Tools</text>
<rect x="422" y="1014" width="142" height="34" rx="11" fill="#3f3f46" stroke="#a1a1aa"/>
<text x="436" y="1036" class="hero">Spoolman</text>
<text x="114" y="1072" class="section">Supporting services</text>
<line x1="334" y1="1082" x2="334" y2="1114" stroke="#334155" stroke-width="1" opacity="0.9"/>
<text x="116" y="1098" class="bullet">•</text>
<text x="132" y="1098" class="svc">Printer Calculator</text>
</g>
<g>
<rect x="626" y="888" width="504" height="250" rx="28" fill="url(#panel)" stroke="#94a3b8" stroke-width="2.3" filter="url(#shadow)"/>
<path d="M 654 888 H 1102 Q 1130 888 1130 916 V 946 H 626 V 916 Q 626 888 654 888 Z" fill="#334155"/>
<text x="652" y="922" class="title2">LXC 108 · openclaw</text>
<text x="1104" y="922" class="ip" text-anchor="end">10.10.0.80</text>
<text x="652" y="974" class="meta">Simple representation only</text>
<text x="652" y="1002" class="section">Primary services</text>
<rect x="652" y="1014" width="142" height="34" rx="11" fill="#263445" stroke="#94a3b8"/>
<text x="666" y="1036" class="hero">OpenClaw</text>
<text x="652" y="1072" class="section">Supporting services</text>
<line x1="872" y1="1082" x2="872" y2="1114" stroke="#334155" stroke-width="1" opacity="0.9"/>
</g>
<g>
<rect x="1164" y="888" width="504" height="250" rx="28" fill="url(#panel)" stroke="#94a3b8" stroke-width="2.3" filter="url(#shadow)"/>
<path d="M 1192 888 H 1640 Q 1668 888 1668 916 V 946 H 1164 V 916 Q 1164 888 1192 888 Z" fill="#334155"/>
<text x="1190" y="922" class="title2">LXC 109 · money</text>
<text x="1642" y="922" class="ip" text-anchor="end">10.10.0.90</text>
<text x="1190" y="974" class="meta">Simple representation only</text>
<text x="1190" y="1002" class="section">Primary services</text>
<rect x="1190" y="1014" width="142" height="34" rx="11" fill="#263445" stroke="#94a3b8"/>
<text x="1204" y="1036" class="hero">Money</text>
<text x="1190" y="1072" class="section">Supporting services</text>
<line x1="1410" y1="1082" x2="1410" y2="1114" stroke="#334155" stroke-width="1" opacity="0.9"/>
</g>
</svg>
